<svg width="108" height="30" viewBox="0 0 108 30" fill="none" xmlns="http://www.w3.org/2000/svg">
<g clip-path="url(#clip0_2135_178)">
<path d="M31.5234 23.5468L31.5 23.5702V26.7989L31.5234 26.8223H32.5141C33.5189 26.8223 34.2432 26.097 34.2432 25.1845C34.2432 24.2721 33.5189 23.5468 32.5141 23.5468H31.5234ZM31.8598 23.9071H32.5141C33.2759 23.9071 33.8273 24.4686 33.8273 25.1845C33.8273 25.9004 33.2759 26.462 32.5141 26.462H31.8598V23.9071ZM35.3815 23.5468L35.3582 23.5702V26.7989L35.3815 26.8223H35.6947L35.7181 26.7989V23.5702L35.6947 23.5468H35.3815ZM39.7933 24.1926V23.7807C39.4895 23.5515 39.0689 23.4766 38.6249 23.4766C37.6202 23.4766 36.8491 24.2487 36.8491 25.1845C36.8491 26.1438 37.6436 26.8925 38.6483 26.8925C39.0689 26.8925 39.4895 26.7755 39.84 26.5182V25.0489L39.8167 25.0255H38.7417L38.7184 25.0489V25.367L38.7417 25.3904H39.4801V26.3029C39.2325 26.448 38.9193 26.5135 38.6483 26.5135C37.8632 26.5135 37.2604 25.9379 37.2604 25.1845C37.2604 24.4452 37.8398 23.8556 38.6249 23.8556C39.0221 23.8556 39.4567 23.9398 39.7699 24.2159L39.7933 24.1926ZM41.0853 23.5468L41.062 23.5702V26.7989L41.0853 26.8223H41.3985L41.4218 26.7989V23.5702L41.3985 23.5468H41.0853ZM42.4547 23.5468L42.4314 23.5702V23.8837L42.4547 23.9071H43.5576V26.7989L43.581 26.8223H43.8988L43.9221 26.7989V23.9071H45.025L45.0484 23.8837V23.5702L45.025 23.5468H42.4547ZM46.4924 23.5468L46.4691 23.5702L45.1699 26.7989L45.1933 26.8223H45.5391L45.5624 26.7989L45.9083 25.9426H47.4037L47.7542 26.7989L47.7776 26.8223H48.1234L48.1468 26.7989L46.8429 23.5702L46.8196 23.5468H46.4924ZM46.656 24.0428L47.2635 25.5823H46.0531L46.656 24.0428ZM49.1092 23.5468L49.0905 23.5655V26.8036L49.1092 26.8223H50.9738L50.9926 26.8036V26.4854L50.9738 26.462H49.4504V23.5655L49.4317 23.5468H49.1092ZM51.8398 25.5401L51.8164 25.5636V25.8818L51.8398 25.9052H53.2885L53.3118 25.8818V25.5636L53.2885 25.5401H51.8398ZM55.3653 23.5468L55.3419 23.5702L54.0427 26.7989L54.0661 26.8223H54.4119L54.4353 26.7989L54.7811 25.9426H56.2766L56.627 26.7989L56.6504 26.8223H56.9962L57.0196 26.7989L55.7158 23.5702L55.6924 23.5468H55.3653ZM55.5288 24.0428L56.1364 25.5823H54.926L55.5288 24.0428ZM57.9867 23.5468L57.9633 23.5702V26.7989L57.9867 26.8223H58.2998L58.3232 26.7989V23.9071H59.842L59.8653 23.8837V23.5702L59.842 23.5468H57.9867ZM60.9002 23.5468L60.8768 23.5702V26.7989L60.9002 26.8223H62.8957L62.9191 26.7989V26.4854L62.8957 26.462H61.2367V25.2033H62.3817L62.405 25.1798V24.8616L62.3817 24.8383H61.2367V23.9071H62.7555L62.7789 23.8837V23.5702L62.7555 23.5468H60.9002ZM64.0008 23.5468L63.9775 23.5702V26.7989L64.0008 26.8223H64.3139L64.3373 26.7989V25.2033H66.2206V26.7989L66.244 26.8223H66.5569L66.5802 26.7989V23.5702L66.5569 23.5468H66.244L66.2206 23.5702V24.8383H64.3373V23.5702L64.3139 23.5468H64.0008ZM67.611 23.5468L67.5877 23.5702V23.8837L67.611 23.9071H68.7137V26.7989L68.737 26.8223H69.0551L69.0785 26.7989V23.9071H70.1812L70.2045 23.8837V23.5702L70.1812 23.5468H67.611ZM73.5236 24.2393V23.8275C73.2198 23.6076 72.8459 23.4766 72.4021 23.4766C71.4439 23.4766 70.6729 24.2487 70.6729 25.1845C70.6729 26.1204 71.4439 26.8925 72.4021 26.8925C72.8459 26.8925 73.2198 26.7615 73.5236 26.5415V26.1298L73.5003 26.1064C73.1874 26.3637 72.7993 26.5135 72.4021 26.5135C71.6778 26.5135 71.0843 25.9239 71.0843 25.1845C71.0843 24.4452 71.6778 23.8556 72.4021 23.8556C72.7993 23.8556 73.1874 24.0053 73.5003 24.2627L73.5236 24.2393ZM74.4605 23.5468L74.4371 23.5702V23.8837L74.4605 23.9071H75.5632V26.7989L75.5865 26.8223H75.9046L75.9279 26.7989V23.9071H77.0306L77.0539 23.8837V23.5702L77.0306 23.5468H74.4605ZM78.0873 23.5468L78.064 23.5702V26.7989L78.0873 26.8223H79.1531C79.7835 26.8223 80.2513 26.3965 80.2513 25.835C80.2513 25.4232 80.0174 25.0863 79.5081 24.9459C79.7135 24.8289 79.8535 24.6464 79.8535 24.3704C79.8535 23.8744 79.4848 23.5468 78.8305 23.5468H78.0873ZM78.4236 23.9071H78.8305C79.2555 23.9071 79.4427 24.0849 79.4427 24.3704C79.4427 24.6932 79.2134 24.8616 78.8305 24.8616H78.4236V23.9071ZM78.4236 25.2267H79.1531C79.5736 25.2267 79.8399 25.4794 79.8399 25.835C79.8399 26.2093 79.5736 26.462 79.1531 26.462H78.4236V25.2267ZM82.9089 23.4766C81.9552 23.4766 81.1797 24.244 81.1797 25.1845C81.1797 26.1251 81.9552 26.8925 82.9089 26.8925C83.8619 26.8925 84.6374 26.1251 84.6374 25.1845C84.6374 24.244 83.8619 23.4766 82.9089 23.4766ZM82.9089 23.8556C83.6332 23.8556 84.2215 24.4499 84.2215 25.1845C84.2215 25.9192 83.6332 26.5135 82.9089 26.5135C82.1846 26.5135 81.5904 25.9192 81.5904 25.1845C81.5904 24.4499 82.1846 23.8556 82.9089 23.8556Z" fill="white"/>
<path fill-rule="evenodd" clip-rule="evenodd" d="M11.9859 2.59375C13.2822 2.59375 14.5304 2.79979 15.6996 3.18095L13.4302 7.21155H16.1123L17.7996 4.09757C21.4808 6.14593 23.9718 10.0792 23.9718 14.5951C23.9718 21.2233 18.6055 26.5965 11.9859 26.5965C5.36626 26.5965 0 21.2233 0 14.5951C0 7.96693 5.36626 2.59375 11.9859 2.59375ZM10.867 9.42694L10.936 9.35792H12.8671L12.936 9.42694L16.5913 18.9568L16.5224 19.0259H14.3844L14.3154 18.9568L13.6257 17.0232H10.1773L9.48764 18.9568L9.41864 19.0259H7.28068L7.21168 18.9568L10.867 9.42694ZM13.005 15.0896L11.9015 11.844L10.7981 15.0896H13.005Z" fill="white"/>
<path d="M34.5773 2.59375C35.7072 2.59375 36.5713 2.85845 37.1699 3.38757C37.7682 3.91668 38.0676 4.71529 38.0676 5.78285V10.1802H36.3726V9.26703C36.1524 9.59483 35.8388 9.8453 35.4319 10.0186C35.025 10.1919 34.5342 10.2786 33.9597 10.2786C33.3852 10.2786 32.8825 10.1826 32.4516 9.99062C32.0207 9.79853 31.6881 9.53158 31.4534 9.18977C31.2188 8.84783 31.1016 8.46164 31.1016 8.03063C31.1016 7.35635 31.3576 6.81551 31.8699 6.40799C32.3823 6.00065 33.189 5.79697 34.29 5.79697H36.2722V5.68454C36.2722 5.16008 36.1118 4.75738 35.7909 4.47631C35.4702 4.19536 34.9938 4.05482 34.3619 4.05482C33.931 4.05482 33.5074 4.12049 33.0907 4.25158C32.6742 4.38265 32.3224 4.56529 32.0352 4.79948L31.3313 3.52104C31.7335 3.22132 32.2171 2.99179 32.782 2.83273C33.347 2.67341 33.9453 2.59375 34.5773 2.59375ZM34.3332 9.00002C34.7831 9.00002 35.183 8.89933 35.5325 8.69804C35.8821 8.49667 36.1285 8.20864 36.2722 7.83407V6.96296H34.4194C33.3852 6.96296 32.8682 7.29556 32.8682 7.9605C32.8682 8.27883 32.9974 8.53183 33.2559 8.71912C33.5144 8.90641 33.8737 9.00002 34.3332 9.00002ZM43.4823 7.17373H42.0891V10.1802H40.2938V2.67821H42.0891V5.71265H43.5253L45.7947 2.67821H47.7194L44.933 6.28865L47.9061 10.1802H45.7947L43.4823 7.17373ZM57.3228 8.69096L57.8522 10.1703L55.9063 10.1802H49.1699V2.67821H50.9653V8.69096H54.6278V2.67821H56.4231V8.69096H57.3228ZM66.3621 6.47126C66.3621 6.59306 66.353 6.7664 66.3336 6.99112H60.3155C60.4208 7.54383 60.6963 7.98152 61.1414 8.30472C61.5866 8.62784 62.1398 8.78944 62.8003 8.78944C63.6427 8.78944 64.3369 8.51769 64.883 7.97458L65.8451 9.05626C65.5004 9.45912 65.065 9.76337 64.538 9.96953C64.0113 10.1755 63.4179 10.2786 62.7573 10.2786C61.9144 10.2786 61.1723 10.1146 60.5309 9.78679C59.8891 9.45912 59.3938 9.00248 59.0445 8.41707C58.6946 7.8318 58.52 7.16906 58.52 6.42906C58.52 5.69852 58.6902 5.04059 59.0302 4.45526C59.3695 3.86992 59.8412 3.41327 60.4444 3.08544C61.0478 2.75773 61.7276 2.59375 62.4841 2.59375C63.2312 2.59375 63.8989 2.75534 64.4879 3.07838C65.0767 3.40168 65.536 3.8558 65.8671 4.44127C66.1969 5.0266 66.3621 5.70332 66.3621 6.47126ZM62.4841 3.99874C61.9094 3.99874 61.4235 4.16499 61.0262 4.49736C60.629 4.82998 60.3872 5.27251 60.3012 5.82508H64.6532C64.576 5.28184 64.3419 4.84157 63.9491 4.50441C63.5568 4.16725 63.0681 3.99874 62.4841 3.99874ZM68.3297 2.67821H70.125V5.72676H73.9884V2.67821H75.7843V10.1802H73.9884V7.2159H70.125V10.1802H68.3297V2.67821ZM84.2781 4.16725H81.5868V10.1802H79.7908V4.16725H77.0911V2.67821H84.2671L84.2781 4.16725Z" fill="white"/>
<path d="M105.934 19.7122H103.469L105.736 13.7891H108.201L105.934 19.7122Z" fill="white"/>
<path d="M31.6484 13.6727H33.2402V15.8244H35.643V13.6727H37.2451V19.1853H35.643V17.1257H33.2402V19.1853H31.6484V13.6727ZM40.9214 13.5907C41.7772 13.5907 42.4345 13.7939 42.8932 14.2004C43.352 14.6068 43.5813 15.2199 43.5813 16.0396V19.1853H42.082V18.4988C41.7807 19.0111 41.2193 19.2673 40.3977 19.2673C39.9734 19.2673 39.6054 19.1955 39.2939 19.052C38.9824 18.9087 38.7445 18.7105 38.5801 18.4577C38.4159 18.205 38.3337 17.9182 38.3337 17.5971C38.3337 17.0848 38.5271 16.6817 38.914 16.3879C39.3008 16.0942 39.8981 15.9474 40.7059 15.9474H41.9792C41.9792 15.5991 41.8732 15.3308 41.6609 15.1431C41.4486 14.9551 41.1302 14.8613 40.7059 14.8613C40.4115 14.8613 40.1223 14.9074 39.8382 14.9996C39.5539 15.0917 39.3128 15.2165 39.1142 15.3736L38.5391 14.2568C38.8403 14.0449 39.2014 13.881 39.6224 13.7649C40.0435 13.6488 40.4766 13.5907 40.9214 13.5907ZM40.7981 18.1915C41.0723 18.1915 41.3151 18.1282 41.5275 18.0019C41.7396 17.8755 41.8902 17.6892 41.9792 17.4434V16.8798H40.8804C40.2232 16.8798 39.8947 17.095 39.8947 17.5254C39.8947 17.7304 39.9751 17.8924 40.1359 18.0122C40.2969 18.1317 40.5176 18.1915 40.7981 18.1915ZM51.1393 13.5907C51.6528 13.5907 52.12 13.7086 52.541 13.9442C52.9621 14.1799 53.2924 14.5111 53.532 14.9381C53.7717 15.365 53.8915 15.8621 53.8915 16.429C53.8915 16.9959 53.7717 17.4928 53.532 17.9198C53.2924 18.3467 52.9621 18.6781 52.541 18.9137C52.12 19.1494 51.6528 19.2673 51.1393 19.2673C50.4341 19.2673 49.8797 19.0452 49.4757 18.6012V21.1732H47.8738V13.6727H49.4038V14.3079C49.8008 13.8299 50.3793 13.5907 51.1393 13.5907ZM50.862 17.9557C51.2728 17.9557 51.61 17.8174 51.8736 17.5408C52.1371 17.2641 52.269 16.8935 52.269 16.429C52.269 15.9645 52.1371 15.594 51.8736 15.3173C51.61 15.0406 51.2728 14.9023 50.862 14.9023C50.4512 14.9023 50.1142 15.0406 49.8506 15.3173C49.587 15.594 49.4552 15.9645 49.4552 16.429C49.4552 16.8935 49.587 17.2641 49.8506 17.5408C50.1142 17.8174 50.4512 17.9557 50.862 17.9557ZM60.3818 16.4495C60.3818 16.47 60.3714 16.6135 60.351 16.8798H56.1713C56.2466 17.2214 56.4248 17.4913 56.7052 17.6892C56.9857 17.8874 57.3348 17.9866 57.7528 17.9866C58.0404 17.9866 58.2955 17.9438 58.5177 17.8584C58.7404 17.7729 58.9471 17.6381 59.139 17.4537L59.9914 18.3758C59.4712 18.9701 58.7112 19.2673 57.7115 19.2673C57.0885 19.2673 56.5375 19.146 56.0583 18.9035C55.5789 18.661 55.2094 18.3245 54.9492 17.8942C54.6891 17.4638 54.559 16.9755 54.559 16.429C54.559 15.8893 54.6874 15.4027 54.944 14.9689C55.2008 14.5352 55.5534 14.197 56.0018 13.9546C56.4501 13.7119 56.9516 13.5907 57.5064 13.5907C58.0469 13.5907 58.5363 13.7069 58.9746 13.939C59.4129 14.1714 59.7571 14.5043 60.0068 14.9381C60.2564 15.3719 60.3818 15.8757 60.3818 16.4495ZM57.5163 14.7999C57.1534 14.7999 56.8493 14.9023 56.6024 15.1072C56.356 15.3121 56.2054 15.5922 56.1504 15.9474H58.8718C58.8173 15.5991 58.6667 15.3207 58.4203 15.1123C58.174 14.904 57.8726 14.7999 57.5163 14.7999ZM65.1265 16.3163C65.4543 16.4187 65.7096 16.5759 65.891 16.7877C66.0724 16.9993 66.1631 17.2521 66.1631 17.5459C66.1631 17.8942 66.0433 18.1999 65.8036 18.4629C65.5638 18.726 65.2354 18.9292 64.8175 19.0726C64.4004 19.216 63.9281 19.2878 63.4007 19.2878C62.9696 19.2878 62.5451 19.2434 62.1277 19.1546C61.7098 19.0658 61.3226 18.9325 60.9669 18.755L61.398 17.6381C61.9803 17.9182 62.6237 18.0582 63.3286 18.0582C63.7053 18.0582 64.0017 18.0019 64.2173 17.8892C64.4328 17.7764 64.5406 17.6175 64.5406 17.4126C64.5406 17.235 64.4653 17.1002 64.3146 17.0079C64.1639 16.9156 63.9451 16.8697 63.6575 16.8697H62.528V15.8757H63.514C63.7944 15.8757 64.0099 15.8313 64.1606 15.7424C64.3113 15.6538 64.3866 15.5239 64.3866 15.3531C64.3866 15.1754 64.2926 15.0388 64.104 14.9433C63.9159 14.8476 63.6471 14.7999 63.2979 14.7999C62.7639 14.7999 62.1821 14.9261 61.5519 15.179L61.1621 14.0722C61.9286 13.7376 62.6748 13.5703 63.4007 13.5703C63.9005 13.5703 64.347 13.6317 64.7408 13.7546C65.1343 13.8776 65.444 14.0569 65.6701 14.2926C65.8962 14.5282 66.0096 14.8031 66.0096 15.1175C66.0096 15.3771 65.9299 15.6111 65.7731 15.8194C65.6157 16.0277 65.3993 16.1933 65.1265 16.3163ZM72.859 13.6727L70.3627 19.5234C70.11 20.1587 69.7965 20.6062 69.4239 20.8658C69.0501 21.1254 68.6005 21.2551 68.0731 21.2551C67.7854 21.2551 67.501 21.2107 67.2205 21.1218C66.9406 21.0332 66.7106 20.9102 66.5331 20.753L67.1181 19.6157C67.2419 19.7251 67.3837 19.8103 67.5444 19.8719C67.7051 19.9333 67.8638 19.964 68.0219 19.964C68.2409 19.964 68.4191 19.9111 68.5558 19.8053C68.6931 19.6993 68.8162 19.5234 68.9257 19.2776L68.9458 19.2263L66.5532 13.6727H68.2066L69.7576 17.4126L71.3177 13.6727H72.859ZM78.5377 13.6727V19.1853H76.9349V14.9842H75.1895L75.1383 15.9577C75.1104 16.6817 75.0424 17.283 74.9329 17.761C74.8234 18.2392 74.6452 18.6149 74.3991 18.8882C74.1529 19.1613 73.8101 19.2981 73.3722 19.2981C73.1396 19.2981 72.8623 19.257 72.5403 19.175L72.6225 17.8636C72.732 17.8771 72.8104 17.884 72.859 17.884C73.0981 17.884 73.2776 17.7968 73.3974 17.6227C73.5173 17.4485 73.5976 17.2266 73.6391 16.9566C73.6805 16.6868 73.7104 16.33 73.7317 15.886L73.8134 13.6727H78.5377ZM83.0658 15.435C83.7843 15.4419 84.3363 15.6041 84.7192 15.9217C85.1028 16.2394 85.2945 16.6886 85.2945 17.2692C85.2945 17.8771 85.0807 18.3502 84.6531 18.6884C84.2242 19.0264 83.6243 19.1955 82.8501 19.1955L80.0778 19.1853V13.6727H81.669V15.435H83.0658ZM82.7069 18.0582C83.0146 18.0651 83.2505 18.0001 83.415 17.8636C83.5796 17.7268 83.6619 17.5219 83.6619 17.2488C83.6619 16.9823 83.5809 16.7877 83.4209 16.6646C83.2595 16.5417 83.0211 16.4767 82.7069 16.47L81.669 16.4597V18.0582H82.7069ZM90.429 14.9842H88.5599V19.1853H86.9687V14.9842H85.0995V13.6727H90.429V14.9842ZM93.4275 13.5907C94.2833 13.5907 94.9403 13.7939 95.3996 14.2004C95.8577 14.6068 96.087 15.2199 96.087 16.0396V19.1853H94.5878V18.4988C94.2872 19.0111 93.7255 19.2673 92.904 19.2673C92.4796 19.2673 92.1116 19.1955 91.8 19.052C91.4883 18.9087 91.2506 18.7105 91.086 18.4577C90.9221 18.205 90.8398 17.9182 90.8398 17.5971C90.8398 17.0848 91.0335 16.6817 91.4197 16.3879C91.8071 16.0942 92.4038 15.9474 93.2117 15.9474H94.4855C94.4855 15.5991 94.3792 15.3308 94.1673 15.1431C93.9548 14.9551 93.6367 14.8613 93.2117 14.8613C92.9176 14.8613 92.6286 14.9074 92.3442 14.9996C92.0598 15.0917 91.8187 15.2165 91.6199 15.3736L91.0452 14.2568C91.3458 14.0449 91.7073 13.881 92.1284 13.7649C92.5496 13.6488 92.9824 13.5907 93.4275 13.5907ZM93.3044 18.1915C93.5784 18.1915 93.8214 18.1282 94.0332 18.0019C94.2457 17.8755 94.396 17.6892 94.4855 17.4434V16.8798H93.3866C92.729 16.8798 92.4006 17.095 92.4006 17.5254C92.4006 17.7304 92.4809 17.8924 92.6416 18.0122C92.8029 18.1317 93.0238 18.1915 93.3044 18.1915ZM101.883 14.9842H100.257V19.1853H98.6643V14.9842H96.7958V13.6727H102.368L101.883 14.9842Z" fill="white"/>
</g>
<defs>
<clipPath id="clip0_2135_178">
<rect width="108" height="30" fill="white"/>
</clipPath>
</defs>
</svg>
