<svg width="17" height="17" viewBox="0 0 17 17" fill="none" xmlns="http://www.w3.org/2000/svg">
<g clip-path="url(#clip0_2246_6377)">
<rect width="17" height="17" rx="8.5" fill="#F3EEE7"/>
<path d="M7.79225 14.7688H7.79221C7.46161 14.7689 7.14319 14.6441 6.90077 14.4193C6.66031 14.1963 6.51227 13.8913 6.4857 13.5647H10.5151C10.4914 13.8567 10.3704 14.1336 10.1698 14.3499C9.94548 14.5918 9.63822 14.7401 9.30936 14.7654L9.20715 14.7688H7.79225ZM13.3527 9.04125V9.06633L13.3639 9.08876L14.6545 11.6699L14.6545 11.6699C14.7031 11.7672 14.7275 11.8748 14.7254 11.9835C14.7234 12.0923 14.695 12.1989 14.6428 12.2943C14.5905 12.3896 14.5159 12.4709 14.4254 12.5312C14.3356 12.5909 14.2327 12.6282 14.1255 12.6399L14.0497 12.6438H2.94866H2.94863C2.83984 12.6439 2.73267 12.6175 2.63629 12.5671C2.53991 12.5166 2.45721 12.4435 2.39526 12.3541C2.33331 12.2646 2.29397 12.1615 2.28061 12.0536C2.26736 11.9465 2.28005 11.8378 2.31758 11.7367L2.3479 11.6675L3.63728 9.08876L3.6485 9.06633V9.04125V6.37508C3.6485 5.08823 4.1597 3.85408 5.06964 2.94414C5.97958 2.0342 7.21373 1.523 8.50058 1.523C9.75864 1.52298 10.9675 2.0116 11.8722 2.88579C12.7767 3.75977 13.3065 4.95082 13.3499 6.2078L13.3527 6.37508V6.37594V9.04125ZM4.8563 6.21676L4.85628 6.21676L4.85623 6.21893L4.85269 6.37263L4.85266 6.37263V6.37508V9.04125C4.85267 9.20298 4.82274 9.3633 4.76439 9.51412L4.71327 9.62999L3.88566 11.2859L3.80882 11.4397H3.9807H13.0212H13.193L13.1162 11.2859L12.2875 9.62701L12.2874 9.62694C12.215 9.48235 12.17 9.32563 12.1546 9.16469L12.1485 9.03867V6.37508C12.1485 5.40759 11.7642 4.47973 11.08 3.79561C10.3959 3.1115 9.46807 2.72716 8.50058 2.72716C7.56053 2.72722 6.6568 3.09016 5.97784 3.74031C5.29888 4.39045 4.8971 5.27761 4.8563 6.21676Z" fill="#624C49" stroke="white" stroke-width="0.2125"/>
</g>
<defs>
<clipPath id="clip0_2246_6377">
<rect width="17" height="17" rx="8.5" fill="white"/>
</clipPath>
</defs>
</svg>
