<svg width="29" height="22" viewBox="0 0 29 22" fill="none" xmlns="http://www.w3.org/2000/svg">
<path d="M26.2959 13.3962C26.1328 12.3382 25.6932 11.3946 24.9864 10.5903C25.5369 7.05026 25.2401 4.14129 24.0801 1.70008C23.8785 1.2753 23.4412 1 22.9666 1H21.5415C21.0714 1 20.6353 1.27414 20.4291 1.69895C19.0074 4.63402 18.2179 8.03135 18.0162 12.0823C17.5144 12.5683 17.0851 13.2016 16.6682 13.8144C15.9715 14.8407 15.3134 15.8104 14.4989 15.8104C13.6844 15.8104 13.0262 14.8407 12.3295 13.8144C11.9138 13.2016 11.4833 12.5694 10.9815 12.0823C10.7799 8.03019 9.99143 4.63286 8.56864 1.69895C8.36474 1.2753 7.92749 1 7.45737 1H6.03229C5.55765 1 5.12152 1.27527 4.91876 1.70008C3.75876 4.14129 3.46198 7.05026 4.01251 10.5903C3.30677 11.3945 2.86612 12.3382 2.703 13.3962C2.27026 13.5933 0.805539 14.3059 0.287864 15.1555C-0.319334 16.1523 0.0692314 18.9695 1.12274 19.6664C2.00178 20.2475 4.31852 20.4084 4.79875 20.4356C5.79788 21.369 6.95562 21.8572 8.1984 21.8572C10.6147 21.8572 12.0113 20.5432 13.0309 19.5837C13.6121 19.0365 14.072 18.6049 14.5002 18.6049C14.9284 18.6049 15.3883 19.0365 15.9694 19.5837C16.9901 20.5432 18.3868 21.8572 20.8019 21.8572C22.0446 21.8572 23.2023 21.3701 24.2016 20.4356C24.6819 20.4084 26.9985 20.2475 27.8776 19.6664C28.9311 18.9709 29.3197 16.1525 28.7114 15.1566C28.1925 14.307 26.729 13.5934 26.2962 13.3963L26.2959 13.3962ZM20.8448 1.90041C20.8674 1.85284 20.8958 1.80866 20.9275 1.76788C22.0036 4.13316 22.288 6.98117 21.7975 10.4565C21.2685 10.5301 19.6984 10.8145 18.5022 11.6788C18.7322 7.87837 19.5001 4.67483 20.8448 1.90041ZM10.4988 11.6789C9.30257 10.8145 7.73249 10.5302 7.20356 10.4566C6.71193 6.98124 6.99739 4.13317 8.07356 1.76794C8.10528 1.80872 8.13246 1.8529 8.15625 1.90048C9.49976 4.67472 10.2677 7.87814 10.4988 11.6789ZM27.6235 19.2823C27.0174 19.6822 25.5187 19.8646 24.6826 19.9382C24.8004 19.8034 24.916 19.6618 25.0281 19.5134C25.8947 18.3715 26.2867 17.2444 26.3036 17.1968C26.3444 17.0767 26.281 16.9453 26.1609 16.9046C26.0408 16.8627 25.9094 16.9272 25.8687 17.0473C25.8653 17.0586 25.479 18.1608 24.6543 19.2449C23.5679 20.6723 22.2731 21.3961 20.8028 21.3961C18.5701 21.3961 17.3025 20.2044 16.2852 19.2472C15.6293 18.6298 15.1116 18.1427 14.4999 18.1427C13.8894 18.1427 13.3705 18.6298 12.7147 19.2472C11.6974 20.2044 10.4298 21.3961 8.19707 21.3961C6.72782 21.3961 5.43188 20.6723 4.34561 19.2449C3.52091 18.1608 3.13576 17.0586 3.13124 17.0473C3.09046 16.9272 2.95905 16.8627 2.83898 16.9046C2.7189 16.9453 2.65433 17.0768 2.69625 17.1968C2.7121 17.2444 3.1052 18.3704 3.97177 19.5134C4.08392 19.6618 4.19947 19.8034 4.31728 19.9382C3.48127 19.8646 1.98256 19.6822 1.37641 19.2823C0.60043 18.7692 0.151832 16.2634 0.682006 15.3958C1.2031 14.5416 2.98613 13.7747 3.00425 13.7668C3.07902 13.7351 3.13113 13.666 3.14245 13.5855C3.28179 12.5332 3.7134 11.602 4.42819 10.8181C4.47577 10.766 4.49616 10.6957 4.48483 10.6266C3.92635 7.13303 4.20503 4.27713 5.33557 1.89828C5.46131 1.63207 5.73545 1.46102 6.03336 1.46102H7.45844C7.53887 1.46102 7.61703 1.47462 7.6918 1.49841C6.52954 4.0019 6.23047 7.01417 6.77535 10.6969C6.79121 10.8011 6.87503 10.8815 6.98038 10.8928C7.00304 10.8951 9.28903 11.133 10.603 12.3553C11.0958 12.8141 11.5308 13.4553 11.9522 14.0749C12.7202 15.2054 13.4441 16.2725 14.5022 16.2725C15.5602 16.2725 16.2852 15.2054 17.0521 14.0749C17.4724 13.4553 17.9074 12.8152 18.4013 12.3553C19.7119 11.1353 22.0001 10.8951 22.0239 10.8928C22.1293 10.8826 22.2131 10.8022 22.229 10.6969C22.7738 7.01417 22.4736 4.00196 21.3125 1.49841C21.3839 1.47348 21.462 1.46102 21.5425 1.46102H22.9675C23.2655 1.46102 23.5385 1.63207 23.6653 1.89828C24.7959 4.27829 25.0734 7.13303 24.5161 10.6266C24.5047 10.6957 24.5263 10.766 24.5727 10.8181C25.2875 11.602 25.7191 12.5332 25.8584 13.5855C25.8686 13.666 25.9219 13.7351 25.9966 13.7668C26.0148 13.7747 27.7978 14.5416 28.3189 15.3958C28.8479 16.2635 28.3994 18.7693 27.6235 19.2823Z" fill="#624C49"/>
</svg>
