<svg width="29" height="22" viewBox="0 0 29 22" fill="none" xmlns="http://www.w3.org/2000/svg">
<path d="M20.0211 2.21307L11.1139 1.59065C10.8678 1.57344 10.6249 1.6547 10.4388 1.81653C10.2526 1.97836 10.1384 2.20752 10.1211 2.4536L9.34302 13.5878C9.32608 13.8338 9.40744 14.0765 9.56923 14.2626C9.73102 14.4487 9.96004 14.563 10.206 14.5804L19.1133 15.2029C19.1353 15.2044 19.1571 15.2052 19.1788 15.2052C19.414 15.2048 19.6404 15.1153 19.8124 14.9548C19.9844 14.7942 20.0893 14.5746 20.106 14.3399L20.8841 3.20577C20.901 2.95976 20.8197 2.71708 20.6579 2.53098C20.4961 2.34488 20.2671 2.23055 20.0211 2.21307H20.0211ZM20.5129 3.17987L19.7349 14.314C19.7243 14.4615 19.6557 14.5989 19.544 14.696C19.4324 14.793 19.2868 14.8419 19.1392 14.8318L10.232 14.2093C10.0844 14.1988 9.94696 14.1302 9.84988 14.0186C9.7528 13.9069 9.70398 13.7613 9.71413 13.6137L10.4923 2.47955C10.5026 2.33191 10.5711 2.19441 10.6828 2.09731C10.7945 2.0002 10.9402 1.95144 11.0879 1.96176L19.9952 2.58423C20.1427 2.59472 20.2801 2.66332 20.3772 2.77499C20.4743 2.88665 20.5231 3.03226 20.5129 3.17987ZM11.1477 17.2554L11.1737 16.8841L17.8571 17.3529L17.8311 17.7242L11.1477 17.2554ZM9.53411 19.0106L9.56015 18.6393L11.0453 18.7434L11.0193 19.1147L9.53411 19.0106ZM12.1325 19.1889L12.1585 18.8175L19.2132 19.3123L19.1872 19.6836L12.1325 19.1889Z" fill="#624C49"/>
<path fill-rule="evenodd" clip-rule="evenodd" d="M24.9678 1.37974C25.075 1.43839 25.1695 1.51772 25.2458 1.61314C25.3227 1.70813 25.38 1.81738 25.4143 1.93464C25.4487 2.05191 25.4594 2.17482 25.4459 2.29626L23.4037 21.1591C23.3791 21.3868 23.2713 21.5974 23.101 21.7506C22.9307 21.9038 22.7099 21.9887 22.4809 21.9893C22.4468 21.9893 22.4128 21.9874 22.3789 21.9837L20.7483 21.8072C20.5891 21.9256 20.396 21.9895 20.1977 21.9893C20.1756 21.9893 20.1535 21.9885 20.1314 21.9869L11.8741 21.4098L6.57336 21.9837C6.53951 21.9874 6.50548 21.9893 6.47142 21.9893C6.24239 21.9888 6.02159 21.9038 5.8513 21.7506C5.68101 21.5975 5.57321 21.3869 5.54852 21.1592L3.50638 2.2963C3.47984 2.05107 3.55179 1.80533 3.70642 1.61315C3.86105 1.42097 4.08569 1.29808 4.33092 1.27151L8.74939 0.79316C8.78403 0.5618 8.90451 0.351961 9.08684 0.205391C9.26917 0.0588208 9.5 -0.0137377 9.7334 0.00215134L21.6098 0.832132C21.776 0.843848 21.9359 0.900333 22.0727 0.995598L24.6213 1.27151C24.7428 1.28431 24.8606 1.3211 24.9678 1.37974ZM22.9445 2.93422L22.3993 2.87599L21.5586 14.9055L21.6474 14.9151C21.7202 14.923 21.7939 14.9165 21.8643 14.8959C21.9346 14.8753 22.0002 14.841 22.0573 14.7951C22.1144 14.7491 22.1619 14.6924 22.1971 14.6281C22.2322 14.5638 22.2544 14.4932 22.2623 14.4203L23.4392 3.54911C23.4551 3.40197 23.412 3.25452 23.3192 3.13921C23.2264 3.02389 23.0916 2.95016 22.9445 2.93422ZM8.34461 6.53303L8.61583 2.65179L6.00786 2.93417C5.93499 2.94206 5.86439 2.96422 5.80009 2.99939C5.73579 3.03456 5.67905 3.08206 5.6331 3.13916C5.58716 3.19627 5.55291 3.26186 5.53232 3.3322C5.51173 3.40254 5.50519 3.47625 5.51309 3.54911L6.69004 14.4203C6.69793 14.4932 6.72009 14.5638 6.75526 14.6281C6.79043 14.6924 6.83792 14.7491 6.89502 14.7951C6.95211 14.841 7.0177 14.8753 7.08804 14.8959C7.15837 14.9165 7.23207 14.923 7.30493 14.9151L7.76227 14.8656L7.99838 11.4876L8.04442 10.8283L8.30047 7.16453L8.34461 6.53303ZM6.31642 21.5947C6.38676 21.6153 6.46046 21.6218 6.53332 21.6139L9.77358 21.2631L8.25499 21.157C8.00902 21.1395 7.78002 21.0252 7.61823 20.8391C7.45644 20.653 7.37508 20.4103 7.39199 20.1643L7.73595 15.2426L7.34498 15.285C7.22353 15.2982 7.10067 15.2873 6.98341 15.2531C6.86616 15.2188 6.75682 15.1617 6.66164 15.0851C6.56646 15.0085 6.48731 14.9139 6.42872 14.8067C6.37013 14.6995 6.33325 14.5818 6.32019 14.4604L5.14318 3.58915C5.13004 3.46772 5.14094 3.34488 5.17527 3.22766C5.2096 3.11044 5.26668 3.00113 5.34326 2.90597C5.41983 2.81081 5.5144 2.73166 5.62156 2.67305C5.72872 2.61444 5.84638 2.5775 5.96781 2.56436L8.64215 2.27482L8.71935 1.1706L4.37101 1.64137C4.29814 1.64925 4.22754 1.67141 4.16324 1.70657C4.09894 1.74174 4.04219 1.78923 3.99624 1.84633C3.95029 1.90343 3.91604 1.96902 3.89544 2.03936C3.87484 2.10969 3.8683 2.1834 3.87619 2.25626L5.91843 21.1191C5.92631 21.192 5.94847 21.2626 5.98364 21.3269C6.01881 21.3912 6.0663 21.4479 6.1234 21.4939C6.1805 21.5398 6.24609 21.5741 6.31642 21.5947ZM20.3734 21.5886C20.4429 21.5653 20.5072 21.5285 20.5624 21.4803C20.6179 21.4324 20.6633 21.3738 20.696 21.3082C20.7287 21.2426 20.7481 21.1711 20.753 21.098L22.1016 1.79884C22.1118 1.65124 22.0629 1.50564 21.9659 1.39398C21.8688 1.28233 21.7314 1.21373 21.5838 1.20324L9.70745 0.37331C9.69427 0.372411 9.68117 0.371962 9.66815 0.371962C9.52699 0.372228 9.39117 0.425905 9.28796 0.522207C9.18476 0.618509 9.12183 0.7503 9.11181 0.8911L7.76311 20.1902C7.75295 20.3379 7.80178 20.4835 7.89886 20.5951C7.99594 20.7068 8.13335 20.7754 8.28094 20.7859L20.1573 21.6158C20.2304 21.6211 20.3039 21.6118 20.3734 21.5886ZM23.0339 21.1192L25.0761 2.25626C25.0839 2.1834 25.0774 2.10969 25.0569 2.03936C25.0363 1.96902 25.002 1.90343 24.9561 1.84633C24.9101 1.78923 24.8534 1.74174 24.7891 1.70657C24.7248 1.67141 24.6542 1.64925 24.5813 1.64137L22.4037 1.40564C22.459 1.53809 22.4827 1.68163 22.4728 1.82483L22.4253 2.5046L22.9842 2.56431C23.1057 2.57743 23.2234 2.61434 23.3306 2.67294C23.4378 2.73155 23.5324 2.81069 23.609 2.90586C23.6856 3.00103 23.7427 3.11036 23.777 3.2276C23.8114 3.34484 23.8223 3.4677 23.8091 3.58915L22.6321 14.4604C22.619 14.5819 22.5822 14.6996 22.5236 14.8068C22.465 14.914 22.3858 15.0085 22.2906 15.0851C22.1955 15.1617 22.0861 15.2188 21.9689 15.2531C21.8516 15.2874 21.7288 15.2982 21.6073 15.285L21.5327 15.2769L21.1241 21.124C21.1158 21.242 21.0851 21.3574 21.0336 21.4639L22.419 21.6139C22.5661 21.6298 22.7136 21.5867 22.8289 21.4939C22.9442 21.4011 23.0179 21.2663 23.0339 21.1192Z" fill="#624C49"/>
</svg>
