<svg width="24" height="24" viewBox="0 0 24 24" fill="none" xmlns="http://www.w3.org/2000/svg">
<path fill-rule="evenodd" clip-rule="evenodd" d="M20.1723 22H5.17543C5.07852 22 5 21.9215 5 21.8246V2.17545C5 2.07854 5.07852 2.00005 5.17543 2.00005L15.6357 2C15.7325 2 15.8111 2.07859 15.8111 2.17547C15.8111 2.27228 15.7325 2.35089 15.6357 2.35089L5.35088 2.35082V21.649H19.9968V6.712C19.9968 6.61516 20.0753 6.53664 20.1722 6.53664C20.2691 6.53663 20.3476 6.6152 20.3476 6.71207V21.8245C20.3476 21.9215 20.2691 22 20.1723 22Z" fill="#624C49"/>
<path fill-rule="evenodd" clip-rule="evenodd" d="M15.8108 2.59892V6.16381C15.8108 6.36939 15.978 6.53664 16.1836 6.53664L19.7485 6.53662L15.8108 2.59892ZM20.172 6.88745H16.1836C15.7846 6.88745 15.46 6.56286 15.46 6.16384L15.46 2.17542C15.46 2.1044 15.5027 2.04052 15.5682 2.01336C15.6338 1.98619 15.7093 2.00125 15.7594 2.05139L20.296 6.58792C20.3462 6.63809 20.3612 6.71366 20.3341 6.77921C20.3069 6.84469 20.2429 6.88748 20.172 6.88745Z" fill="#624C49"/>
<path fill-rule="evenodd" clip-rule="evenodd" d="M17.6018 9.70825H7.74574C7.64883 9.70825 7.57031 9.62978 7.57031 9.53286C7.57031 9.43596 7.64883 9.35743 7.74574 9.35743L17.6018 9.35742C17.6986 9.35742 17.7772 9.43602 17.7772 9.53286C17.7772 9.62973 17.6986 9.7083 17.6018 9.70825Z" fill="#624C49"/>
<path fill-rule="evenodd" clip-rule="evenodd" d="M16.0256 10.9421H7.74574C7.64883 10.9421 7.57031 10.8636 7.57031 10.7667C7.57031 10.6698 7.64883 10.5913 7.74574 10.5913H16.0256C16.1224 10.5913 16.201 10.6698 16.201 10.7667C16.201 10.8635 16.1224 10.9422 16.0256 10.9421Z" fill="#624C49"/>
<path fill-rule="evenodd" clip-rule="evenodd" d="M14.495 12.1755H7.74574C7.64883 12.1755 7.57031 12.0971 7.57031 12.0002C7.57031 11.9032 7.64883 11.8248 7.74574 11.8248L14.495 11.8247C14.5919 11.8247 14.6704 11.9033 14.6704 12.0002C14.6704 12.097 14.5919 12.1756 14.495 12.1755Z" fill="#624C49"/>
<path fill-rule="evenodd" clip-rule="evenodd" d="M16.2312 13.4089H7.74574C7.64883 13.4089 7.57031 13.3304 7.57031 13.2336C7.57031 13.1366 7.64883 13.0581 7.74574 13.0581L16.2312 13.0581C16.328 13.0581 16.4066 13.1367 16.4066 13.2336C16.4066 13.3304 16.328 13.409 16.2312 13.4089Z" fill="#624C49"/>
<path fill-rule="evenodd" clip-rule="evenodd" d="M14.6549 14.6424H7.74574C7.64883 14.6424 7.57031 14.5639 7.57031 14.467C7.57031 14.37 7.64883 14.2916 7.74574 14.2916L14.6549 14.2915C14.7518 14.2915 14.8303 14.3701 14.8303 14.467C14.8304 14.5638 14.7518 14.6425 14.6549 14.6424Z" fill="#624C49"/>
</svg>
