<svg width="24" height="24" viewBox="0 0 24 24" fill="none" xmlns="http://www.w3.org/2000/svg">
<path d="M22.5279 5.62946C21.9754 4.23596 20.9331 3.10769 19.6084 2.46932C18.9711 2.17099 18.2808 2.0114 17.5807 2.00059C16.8807 1.98977 16.186 2.12796 15.5403 2.40647C14.1902 2.97859 12.9749 4.14354 12.0001 5.79343C11.0254 4.14402 9.8101 2.97907 8.45998 2.40696C7.81429 2.12844 7.11961 1.99026 6.41954 2.00107C5.71948 2.01189 5.02914 2.17147 4.39186 2.4698C3.06731 3.10805 2.02497 4.23614 1.47235 5.62946C0.850741 7.21387 0.842367 8.98304 1.44895 10.5736C2.22452 12.7333 4.01086 14.0256 6.07921 15.5214C7.93833 16.8662 10.0458 18.3906 11.7193 20.8491C11.751 20.8957 11.7931 20.9337 11.8421 20.96C11.8911 20.9863 11.9456 21 12.0008 21C12.0561 21 12.1106 20.9863 12.1596 20.96C12.2086 20.9337 12.2507 20.8957 12.2824 20.8491C13.9543 18.3909 16.0617 16.8664 17.9211 15.5214C19.9897 14.0253 21.776 12.733 22.5509 10.5734C23.1575 8.98293 23.1493 7.21386 22.5279 5.62946ZM21.9059 10.3287C21.2052 12.2818 19.5001 13.5151 17.5256 14.9435C15.7212 16.2481 13.6896 17.7181 12.0001 20.0437C10.3107 17.7181 8.27908 16.2481 6.47472 14.9435C4.50021 13.5151 2.79508 12.2818 2.0944 10.3287C0.893595 6.98246 2.52805 4.11392 4.67503 3.11344C5.24913 2.84474 5.87234 2.70518 6.50303 2.70409C8.21566 2.70409 10.1569 3.74623 11.6985 6.6716C11.7279 6.72761 11.7716 6.77439 11.8248 6.807C11.8779 6.8396 11.9387 6.85681 12.0006 6.85681C12.0625 6.85681 12.1233 6.8396 12.1765 6.807C12.2296 6.77439 12.2733 6.72761 12.3027 6.6716C14.4319 2.62824 17.3264 2.18158 19.3252 3.11344C21.4722 4.11392 23.1067 6.98246 21.9059 10.3287Z" fill="#624C49"/>
</svg>
