<svg width="18" height="19" viewBox="0 0 18 19" fill="none" xmlns="http://www.w3.org/2000/svg">
<path d="M8.01706 12.2765L9.22879 12.2835V0.5H8.01807L8.01706 12.2765ZM13.67 6.19049H17.2456V4.1089H13.67V6.19049ZM16.0631 6.70835L14.8513 6.71543V18.499H16.0621L16.0631 6.70835ZM14.8513 3.59106L16.0631 3.58397V0.501117H14.8524L14.8513 3.59106ZM1.18149 7.94139L2.39322 7.93431V0.501117H1.1825L1.18149 7.94139ZM2.39322 11.0597L1.18149 11.0668V18.5H2.39221L2.39322 11.0597ZM3.57561 8.45926H0V10.5408H3.57561V8.45926ZM9.22864 15.4101L8.01691 15.4171V18.5H9.22763L9.22864 15.4101ZM10.411 12.8106H6.83542V14.8922H10.411V12.8106Z" fill="#624C49"/>
</svg>
