<svg width="24" height="24" viewBox="0 0 24 24" fill="none" xmlns="http://www.w3.org/2000/svg">
<path d="M12.1882 22.9998C11.8042 22.9998 11.445 22.8264 11.2096 22.5167C11.1787 22.4796 11.1477 22.4362 11.1167 22.3929C11.0919 22.3619 11.0672 22.3247 11.0362 22.2876C10.1257 21.0922 9.32053 19.9835 8.5773 18.8934C6.49002 15.8461 4 11.6901 4 9.18801C4 4.67287 7.67287 1 12.188 1C16.7032 1 20.376 4.67287 20.376 9.18801C20.376 11.6903 17.8861 15.8462 15.7987 18.8934C15.0555 19.9835 14.2503 21.0922 13.346 22.2815C13.315 22.3187 13.2903 22.3559 13.2655 22.3868C13.2345 22.4302 13.1974 22.4735 13.1664 22.5169C12.931 22.8266 12.5718 23 12.1878 23L12.1882 22.9998ZM12.1882 1.60064C8.00131 1.60064 4.59481 5.00713 4.59481 9.19405C4.59481 11.0522 6.14324 14.2914 9.06683 18.5652C9.80387 19.6429 10.6029 20.7454 11.5072 21.9283C11.5319 21.9654 11.5629 22.0026 11.5877 22.0336C11.6186 22.0769 11.6496 22.1141 11.6806 22.1513C11.8045 22.3123 11.9903 22.4052 12.1947 22.4052C12.3991 22.4052 12.5849 22.3123 12.7087 22.1574C12.7397 22.1141 12.7707 22.0769 12.8016 22.0398C12.8264 22.0026 12.8574 21.9654 12.8822 21.9283C13.7865 20.7453 14.5793 19.6428 15.3163 18.5652C18.2398 14.2914 19.7883 11.0524 19.7883 9.19405C19.7821 5.00713 16.3755 1.60064 12.1886 1.60064H12.1882Z" fill="#624C49"/>
<path d="M12.186 14.5566C9.23161 14.5566 6.82227 12.1534 6.82227 9.19285C6.82227 6.23226 9.22543 3.8291 12.186 3.8291C15.1466 3.8291 17.5498 6.23226 17.5498 9.19285C17.5498 12.1534 15.1404 14.5566 12.186 14.5566ZM12.186 4.4237C9.55368 4.4237 7.41686 6.56054 7.41686 9.19285C7.41686 11.8252 9.55371 13.962 12.186 13.962C14.8183 13.962 16.9552 11.8252 16.9552 9.19285C16.9552 6.56054 14.8183 4.4237 12.186 4.4237Z" fill="#624C49"/>
</svg>
