<svg width="29" height="22" viewBox="0 0 29 22" fill="none" xmlns="http://www.w3.org/2000/svg">
<path fill-rule="evenodd" clip-rule="evenodd" d="M27.1222 10.05L27.2212 10.1491C27.3182 10.4522 27.482 10.7464 27.6472 11.0432C27.9319 11.5548 28.2209 12.074 28.1791 12.6593C27.8698 13.4325 27.3 14.0319 26.7406 14.6202C26.7026 14.6603 26.6646 14.7002 26.6267 14.7402C26.4616 14.9053 26.1643 14.9714 25.9661 14.7732C25.7459 14.531 25.4964 14.3181 25.2468 14.1053C25.122 13.9989 24.9973 13.8924 24.8762 13.7823L24.8101 13.7163C24.3147 13.8154 23.7862 13.7823 23.2908 13.6502C22.8284 13.5511 22.399 13.353 22.0026 13.0557C22.1678 14.3438 22.2669 15.665 21.9035 16.9201C21.8913 16.961 21.876 17.0161 21.8577 17.0816C21.7288 17.5455 21.454 18.5341 21.0778 18.7367C21.0778 18.7504 21.0835 18.7641 21.0901 18.7801C21.0995 18.8028 21.1108 18.8302 21.1108 18.8688C21.0999 18.9895 21.1071 19.1174 21.1144 19.2466C21.1291 19.5064 21.1441 19.7712 21.0117 19.9918C20.543 20.402 19.8925 20.5263 19.2905 20.6413C19.2137 20.656 19.1377 20.6705 19.063 20.6855C16.784 20.9827 14.4719 20.9167 12.1599 20.8506C11.9804 20.8408 11.7983 20.8323 11.6145 20.8237C9.93818 20.7455 8.11883 20.6605 6.80914 19.5294C6.67703 19.3313 6.71006 19.1001 6.74308 18.9019C6.75583 18.8636 6.76366 18.8106 6.77227 18.7523C6.78596 18.6596 6.80161 18.5536 6.84217 18.4725C5.38888 16.9201 5.45494 14.7072 5.98341 12.7254C5.86311 12.8256 5.71847 12.9137 5.59382 12.9896C5.51312 13.0388 5.4408 13.0828 5.38888 13.1217C4.9595 13.419 4.49709 13.5511 4.00165 13.4851C3.94222 13.6237 3.71645 13.7149 3.5025 13.8013C3.35972 13.8589 3.22221 13.9144 3.14289 13.9805C3.03142 14.027 2.91473 14.0995 2.79501 14.174C2.48906 14.3642 2.16337 14.5668 1.85475 14.3769C0.830842 13.7823 0.236315 12.7584 0.0381389 11.6354C0.00510965 11.5033 -0.0279196 11.3051 0.0381389 11.173C0.0381389 11.14 0.0711683 11.0739 0.104198 11.0409C0.368432 10.7767 0.632666 10.5124 0.863871 10.2482C0.962959 10.1821 1.02902 10.1821 1.09508 10.1821C0.962959 9.05915 1.32628 7.90312 2.18504 7.14345C2.45959 6.89635 2.76267 6.66637 3.06819 6.43454C3.49777 6.10857 3.93218 5.77893 4.29892 5.3929C5.45494 4.03869 6.90823 2.84964 8.52667 2.05694C9.06266 1.78894 9.6346 1.6108 10.216 1.42972C10.4228 1.36531 10.6307 1.30053 10.8387 1.23121C10.8387 1.19818 10.8717 1.19818 10.9048 1.19818C10.9378 1.06606 11.0369 1 11.136 1C12.5893 1.42938 14.1747 1.46241 15.661 1.16515C15.7931 1.13212 15.9913 1.09909 16.0904 1.16515C16.1895 1 16.4207 1 16.5858 1C18.1712 1.09909 19.6575 1.95785 20.9457 2.88267C21.3571 3.20513 21.7919 3.52385 22.2328 3.84701C24.4111 5.44373 26.7376 7.14904 27.1222 9.95094V10.05ZM16.1564 1.85876C16.1234 1.72664 16.0904 1.59453 16.1234 1.49544C15.628 1.95785 12.4572 1.85876 12.0608 1.72664C11.7966 1.69362 11.5654 1.62756 11.3342 1.5615C11.3121 1.60554 11.2901 1.62022 11.2681 1.6349C11.2571 1.64224 11.2461 1.64958 11.2351 1.66059C11.2237 1.68325 11.2124 1.70495 11.2014 1.72601C11.1483 1.82768 11.103 1.91446 11.103 2.02391C10.8387 3.60931 12.8865 4.53413 14.2077 4.23687C15.2977 4.07172 16.2885 2.98176 16.1564 1.85876ZM16.4207 3.11388C15.8922 4.30293 14.505 4.96352 13.2168 4.76534C11.7966 4.56716 10.2442 3.31205 10.6736 1.7927C10.5219 1.83061 10.3812 1.8794 10.2451 1.92657C10.144 1.96161 10.0455 1.99576 9.94693 2.02391C9.92903 2.02391 9.9145 2.03108 9.90295 2.04443L9.45149 2.25511C7.80002 2.88267 6.41279 4.00567 5.19071 5.22775C4.77404 5.81683 4.20112 6.25591 3.63236 6.69181C2.89363 7.25796 2.16192 7.81874 1.78869 8.69582C1.09508 10.5124 2.21807 13.0227 4.33195 13.0887C4.81512 13.0082 5.21104 12.7095 5.59061 12.4231C5.67808 12.3572 5.76469 12.2918 5.85129 12.23C5.91735 12.1639 6.01644 12.1639 6.11553 12.1969C6.13204 12.1309 6.14856 12.0731 6.16507 12.0153C6.18159 11.9575 6.1981 11.8997 6.21462 11.8336C6.3959 11.32 6.50118 10.7787 6.6063 10.2382C6.73101 9.59701 6.8555 8.95696 7.10641 8.36553C7.37064 8.06827 7.70093 8.43159 7.46973 8.72885C7.33493 9.22762 7.22213 9.7374 7.10889 10.2492C6.94466 10.9914 6.7795 11.7379 6.54491 12.4612C5.88432 14.4099 5.71918 16.8871 7.37064 18.4064C7.56882 18.5386 7.4367 18.8028 7.23852 18.8358C7.23371 18.8599 7.22889 18.8833 7.22417 18.9062C7.19656 19.0402 7.17247 19.1572 7.17247 19.2982C8.80046 20.4175 11.0162 20.4201 13.0803 20.4225C13.6964 20.4232 14.2989 20.4239 14.8683 20.4543C15.175 20.4482 15.4839 20.4466 15.794 20.445C17.187 20.4376 18.604 20.4301 19.9548 20.0249C20.6213 19.8305 20.6107 19.7061 20.5708 19.2396C20.5632 19.1512 20.5546 19.0506 20.5493 18.9349C20.5493 18.8358 20.6154 18.7698 20.6814 18.7367C20.5824 18.5716 20.7145 18.3734 20.8136 18.2743C21.7384 16.6559 21.6393 14.7072 21.4081 12.9236C21.3635 12.2549 21.2253 11.5995 21.0868 10.9425C20.9174 10.1392 20.7475 9.33342 20.7475 8.49765C20.7475 8.16736 21.2429 8.16736 21.2429 8.49765C21.2219 9.29745 21.3886 10.0704 21.5551 10.8422C21.6498 11.2816 21.7445 11.7206 21.8044 12.1639C21.8044 12.2134 21.8127 12.2712 21.821 12.329C21.8292 12.3868 21.8375 12.4447 21.8375 12.4942C22.0072 12.5405 22.1696 12.6516 22.3384 12.767C22.5309 12.8987 22.7316 13.0359 22.9605 13.0887C23.6211 13.2869 24.4138 13.386 25.1404 13.1878C25.232 13.1486 25.3339 13.0627 25.44 12.9733C25.6019 12.837 25.7735 12.6924 25.9331 12.6924C25.9503 12.5545 26.0666 12.4255 26.1831 12.2962C26.2899 12.1778 26.397 12.059 26.4285 11.9327C27.0231 10.7106 26.6267 9.32338 26.0322 8.16736C25.6493 7.40159 25.0173 6.81698 24.3988 6.24479C24.2703 6.12594 24.1424 6.00762 24.0174 5.88833C23.6757 5.6255 23.3183 5.33782 22.9479 5.03962C21.4562 3.83886 19.7523 2.4673 18.0061 1.85876L17.4776 1.66059C17.1803 1.59453 16.8831 1.5615 16.5858 1.52847C16.784 2.05694 16.6519 2.65147 16.4207 3.11388ZM0.46752 11.4373C0.599637 12.4612 1.16113 13.452 2.08596 13.9805C2.28413 13.8814 2.49057 13.7741 2.697 13.6667C2.90343 13.5594 3.10986 13.452 3.30804 13.353C2.15201 12.9236 1.39234 11.8666 1.12811 10.6776C1.0711 10.7346 1.00621 10.8113 0.936176 10.8941C0.803331 11.0511 0.65194 11.23 0.500549 11.3382C0.500549 11.3712 0.500549 11.4042 0.46752 11.4373ZM25.7019 13.964C25.8588 14.0961 26.0157 14.2282 26.1643 14.3769C26.7258 13.8154 27.3203 13.1878 27.5846 12.4281C27.5846 12.0766 27.4127 11.7441 27.2432 11.4162C27.1898 11.3128 27.1366 11.2099 27.0891 11.107V11.0739C27.0231 11.6685 26.7919 12.23 26.3625 12.6924C26.3295 12.7915 26.1973 12.8905 26.0982 12.8905C26.0982 12.9566 26.0652 13.0227 25.9992 13.0557C25.768 13.2869 25.5037 13.452 25.2395 13.5511C25.3881 13.6998 25.545 13.8319 25.7019 13.964Z" fill="#624C49"/>
</svg>
