<svg width="29" height="25" viewBox="0 0 29 25" fill="none" xmlns="http://www.w3.org/2000/svg">
<mask id="path-1-inside-1_230_12481" fill="white">
<path d="M22.9994 14.2123C22.7116 13.2528 22.233 12.6648 21.7264 12.0423C21.2077 11.4052 20.671 10.7448 20.2103 9.54879C19.7662 8.39407 19.4628 7.18359 19.3099 5.94953C19.2865 5.7621 19.1471 5.60926 18.9618 5.56799C18.7733 5.52782 18.5859 5.60815 18.4866 5.76992C17.6029 7.20465 17.2716 8.55684 17.5014 9.79073C17.6175 10.4144 17.8462 10.8607 18.047 11.2545C18.2634 11.6773 18.433 12.0109 18.4196 12.4739C18.4029 13.0552 18.2021 13.6431 17.8395 14.173C17.69 14.3917 17.4457 14.4988 17.1757 14.5089C16.8879 14.5033 16.6257 14.3571 16.4661 14.1039C15.9886 13.3363 16.1627 12.5855 16.3824 11.6338C16.5833 10.7703 16.8097 9.79073 16.5186 8.66946C16.253 7.64975 15.732 7.18118 15.1809 6.68359C14.6978 6.24849 14.1991 5.79885 13.7026 4.86728C13.0287 3.60212 12.7342 2.12386 12.8279 0.471462C12.8402 0.258372 12.6996 0.0653541 12.4921 0.0129162C12.2824 -0.0372883 12.0693 0.0620066 11.9789 0.25613C11.199 1.92069 10.8733 3.55635 11.0127 5.11606C11.0987 6.08222 11.3396 6.80519 11.5527 7.4411C11.797 8.1752 12.009 8.80891 11.9387 9.6702C11.8651 10.5906 11.4925 11.4999 10.8331 12.3734C10.7439 12.4917 10.6211 12.495 10.5698 12.4895C10.5185 12.485 10.3913 12.4593 10.321 12.3188C10.1849 12.0488 10.0923 11.7676 10.0444 11.4842C9.97964 11.0993 10.0165 10.8193 10.051 10.5482C10.089 10.257 10.128 9.95469 10.0365 9.59545C9.78663 8.62595 8.77472 7.91526 6.94167 7.42324C6.77656 7.37862 6.59917 7.43328 6.48761 7.56382C6.37605 7.69435 6.34927 7.87733 6.41844 8.03462C6.65385 8.56791 6.79999 9.12796 6.85131 9.69918C6.94949 10.8081 6.67057 11.7286 6.44075 12.2608C5.79701 13.3675 4.81523 15.6055 5.4679 18.1526C6.38608 21.7404 10.0442 23.6963 13.2619 24.0422C13.5933 24.0779 13.9358 24.0957 14.2838 24.0957C17.0774 24.0957 20.3208 22.9265 22.0253 20.1252C22.3332 19.6209 23.826 16.9666 22.9981 14.2076L22.9994 14.2123Z"/>
</mask>
<path d="M22.9994 14.2123C22.7116 13.2528 22.233 12.6648 21.7264 12.0423C21.2077 11.4052 20.671 10.7448 20.2103 9.54879C19.7662 8.39407 19.4628 7.18359 19.3099 5.94953C19.2865 5.7621 19.1471 5.60926 18.9618 5.56799C18.7733 5.52782 18.5859 5.60815 18.4866 5.76992C17.6029 7.20465 17.2716 8.55684 17.5014 9.79073C17.6175 10.4144 17.8462 10.8607 18.047 11.2545C18.2634 11.6773 18.433 12.0109 18.4196 12.4739C18.4029 13.0552 18.2021 13.6431 17.8395 14.173C17.69 14.3917 17.4457 14.4988 17.1757 14.5089C16.8879 14.5033 16.6257 14.3571 16.4661 14.1039C15.9886 13.3363 16.1627 12.5855 16.3824 11.6338C16.5833 10.7703 16.8097 9.79073 16.5186 8.66946C16.253 7.64975 15.732 7.18118 15.1809 6.68359C14.6978 6.24849 14.1991 5.79885 13.7026 4.86728C13.0287 3.60212 12.7342 2.12386 12.8279 0.471462C12.8402 0.258372 12.6996 0.0653541 12.4921 0.0129162C12.2824 -0.0372883 12.0693 0.0620066 11.9789 0.25613C11.199 1.92069 10.8733 3.55635 11.0127 5.11606C11.0987 6.08222 11.3396 6.80519 11.5527 7.4411C11.797 8.1752 12.009 8.80891 11.9387 9.6702C11.8651 10.5906 11.4925 11.4999 10.8331 12.3734C10.7439 12.4917 10.6211 12.495 10.5698 12.4895C10.5185 12.485 10.3913 12.4593 10.321 12.3188C10.1849 12.0488 10.0923 11.7676 10.0444 11.4842C9.97964 11.0993 10.0165 10.8193 10.051 10.5482C10.089 10.257 10.128 9.95469 10.0365 9.59545C9.78663 8.62595 8.77472 7.91526 6.94167 7.42324C6.77656 7.37862 6.59917 7.43328 6.48761 7.56382C6.37605 7.69435 6.34927 7.87733 6.41844 8.03462C6.65385 8.56791 6.79999 9.12796 6.85131 9.69918C6.94949 10.8081 6.67057 11.7286 6.44075 12.2608C5.79701 13.3675 4.81523 15.6055 5.4679 18.1526C6.38608 21.7404 10.0442 23.6963 13.2619 24.0422C13.5933 24.0779 13.9358 24.0957 14.2838 24.0957C17.0774 24.0957 20.3208 22.9265 22.0253 20.1252C22.3332 19.6209 23.826 16.9666 22.9981 14.2076L22.9994 14.2123Z" stroke="#624C49" stroke-width="0.987026" mask="url(#path-1-inside-1_230_12481)"/>
</svg>
