<svg width="29" height="26" viewBox="0 0 29 26" fill="none" xmlns="http://www.w3.org/2000/svg">
<path d="M22.7349 25.1141C21.4586 25.1141 20.039 20.7957 20.02 14.5847C21.8254 13.1424 22.9974 10.7514 22.9974 8.38698C22.9974 8.24003 22.8793 8.12077 22.7339 8.12077C22.4962 8.12077 22.2628 8.13408 22.0299 8.14846V0.829487C22.0299 0.372151 21.6615 0 21.2083 0H20.5818C20.1291 0 19.7602 0.372151 19.7602 0.829487V8.51795C16.912 9.2894 14.7204 11.1321 13.9984 13.4182C13.277 11.1315 11.0854 9.2894 8.23661 8.51742V0.829487C8.23661 0.372151 7.86826 0 7.4156 0H6.78851C6.33585 0 5.9675 0.372151 5.9675 0.829487V8.14846C5.73459 8.13462 5.50114 8.12077 5.26401 8.12077C5.11857 8.12077 5.00053 8.24003 5.00053 8.38698C5.00053 10.7514 6.17302 13.1424 7.97839 14.5847C7.9589 20.7957 6.53979 25.1141 5.26401 25.1141C5.11857 25.1141 5 25.2333 5 25.3803C5 25.5272 5.11804 25.6465 5.26348 25.6465C5.64869 25.6465 5.82944 25.72 6.03812 25.8041C6.26471 25.8962 6.52134 26 7.00878 26C7.49622 26 7.75338 25.8962 7.97997 25.8041C8.18865 25.72 8.3694 25.6465 8.75514 25.6465C9.14087 25.6465 9.32162 25.72 9.5303 25.8041C9.75742 25.8962 10.0141 26 10.5015 26C10.9889 26 11.2461 25.8962 11.4727 25.8041C11.6814 25.72 11.8621 25.6465 12.2484 25.6465C12.6336 25.6465 12.8138 25.72 13.0225 25.8041C13.2491 25.8962 13.5057 26 13.9926 26C14.4795 26 14.7372 25.8962 14.9633 25.8041C15.1725 25.72 15.3532 25.6465 15.7395 25.6465C16.1258 25.6465 16.306 25.72 16.5157 25.8041C16.7423 25.8962 16.9989 26 17.4864 26C17.9744 26 18.231 25.8962 18.4581 25.8041C18.6673 25.72 18.8481 25.6465 19.2343 25.6465C19.6206 25.6465 19.8019 25.72 20.0116 25.8041C20.2392 25.8962 20.4964 26 20.9854 26C21.4739 26 21.7311 25.8962 21.9582 25.8041C22.1674 25.72 22.3487 25.6465 22.7355 25.6465C22.7355 25.6465 22.7355 25.6465 22.736 25.6465C22.8814 25.6465 23 25.5272 23 25.3803C23 25.2333 22.8804 25.1141 22.7349 25.1141ZM20.2877 0.829487C20.2877 0.665506 20.42 0.532405 20.5823 0.532405H21.2089C21.3712 0.532405 21.5034 0.665506 21.5034 0.829487V8.19371C21.0887 8.2379 20.6824 8.30179 20.2877 8.38804V0.829487ZM22.4614 8.66329C22.364 11.0357 21.0344 13.3948 19.0847 14.6001C17.5554 15.5462 15.8539 15.6389 14.274 14.8839C14.3915 11.5026 17.9917 8.7719 22.4614 8.66329ZM6.49447 0.829487C6.49447 0.665506 6.62621 0.532405 6.78851 0.532405H7.4156C7.5779 0.532405 7.70964 0.665506 7.70964 0.829487V8.38804C7.31442 8.30179 6.90866 8.23737 6.49394 8.19371V0.829487H6.49447ZM5.53697 8.66329C10.0067 8.7719 13.6069 11.5026 13.7244 14.885C12.144 15.641 10.4425 15.5468 8.91375 14.6007C6.96399 13.3948 5.63394 11.0362 5.53697 8.66329ZM21.7611 25.31C21.5519 25.3941 21.3706 25.4676 20.9838 25.4676C20.5965 25.4676 20.4152 25.3941 20.2055 25.3095C19.9784 25.2179 19.7207 25.1141 19.2327 25.1141C18.7448 25.1141 18.4881 25.2179 18.261 25.31C18.0518 25.3941 17.8711 25.4676 17.4848 25.4676C17.0996 25.4676 16.9188 25.3947 16.7102 25.31C16.483 25.2179 16.2259 25.1141 15.7379 25.1141C15.25 25.1141 14.9928 25.2179 14.7657 25.31C14.557 25.3947 14.3768 25.4676 13.991 25.4676C13.6058 25.4676 13.4256 25.3941 13.2169 25.31C12.9903 25.2179 12.7337 25.1141 12.2468 25.1141C11.7594 25.1141 11.5022 25.2179 11.2751 25.31C11.0664 25.3941 10.8856 25.4676 10.4999 25.4676C10.1142 25.4676 9.93343 25.3941 9.72475 25.31C9.49816 25.2179 9.241 25.1141 8.75356 25.1141C8.26612 25.1141 8.00896 25.2179 7.78236 25.31C7.57369 25.3941 7.39294 25.4676 7.0072 25.4676C6.62199 25.4676 6.44177 25.3941 6.23257 25.31C6.20464 25.2988 6.17355 25.2871 6.14404 25.2759C7.62744 23.9721 8.44476 19.4189 8.50272 14.9648C8.54804 14.9947 8.59178 15.0266 8.63762 15.0553C9.57773 15.6367 10.5774 15.929 11.5807 15.9285C12.3943 15.9285 13.2101 15.7304 13.9984 15.3444C14.7878 15.7299 15.603 15.928 16.4167 15.928C17.4195 15.928 18.4196 15.6362 19.3592 15.0548C19.4051 15.0261 19.4488 14.9941 19.4941 14.9643C19.5521 19.4173 20.3689 23.9694 21.8528 25.2743C21.8222 25.2866 21.7901 25.2988 21.7611 25.31Z" fill="#624C49"/>
</svg>
