<svg width="24" height="24" viewBox="0 0 24 24" fill="none" xmlns="http://www.w3.org/2000/svg">
<path d="M12.0475 20.9995C11.9862 20.9995 11.9261 20.9925 11.866 20.9775C11.5342 20.9012 11.3041 20.5971 11.3215 20.2561L11.3388 12.9726L11.34 12.9738C11.34 12.8894 11.3064 12.8096 11.2475 12.7495C11.1885 12.6905 11.1087 12.657 11.0243 12.657L3.73377 12.6755V12.6767C3.39735 12.6894 3.09791 12.4593 3.02392 12.131C2.93721 11.8107 3.09214 11.4743 3.39273 11.3321L3.40891 11.324L20.6017 3.0301C20.708 2.97576 20.8364 2.99657 20.9207 3.07981C21.004 3.16421 21.0248 3.29254 20.9705 3.39889L12.665 20.6135C12.5517 20.8505 12.3111 21.0018 12.0475 20.9995ZM11.0243 12.2951C11.2047 12.2939 11.3781 12.3656 11.5053 12.4939C11.6325 12.6211 11.703 12.7945 11.7018 12.9749L11.6845 20.2643V20.2631C11.6718 20.4342 11.7874 20.588 11.9539 20.6261C12.1076 20.6712 12.2718 20.5972 12.3377 20.4504L12.3446 20.4377L20.5358 3.4613L3.54671 11.6629C3.39988 11.7288 3.32589 11.8929 3.37098 12.0467C3.40797 12.2109 3.55827 12.3253 3.7259 12.3161L11.0221 12.2987L11.0243 12.2951Z" fill="#624C49"/>
</svg>
