<svg width="166" height="81" viewBox="0 0 166 81" fill="none" xmlns="http://www.w3.org/2000/svg">
<path d="M0.131977 32.9206H0.46192C0.769867 32.9206 1.05582 32.8208 1.31977 32.6211C1.58373 32.4214 1.80369 32.1884 1.97966 31.9221C2.19962 31.6559 2.35359 31.373 2.44158 31.0734C2.52956 30.7406 2.57356 30.4411 2.57356 30.1748V3.61541C2.57356 3.38243 2.52956 3.11617 2.44158 2.81663C2.35359 2.51709 2.19962 2.23418 1.97966 1.96792C1.80369 1.66838 1.56173 1.4354 1.25378 1.26899C0.989829 1.0693 0.681882 0.969451 0.329943 0.969451H0V0.470215H10.8221C14.9134 0.470215 18.1029 1.15251 20.3905 2.51709C22.7221 3.88167 23.8879 5.69556 23.8879 7.95877C23.8879 8.92396 23.6679 9.7893 23.228 10.5548C22.7881 11.3203 22.2162 12.0026 21.5123 12.6017C20.8524 13.2008 20.1265 13.7166 19.3347 14.1493C18.5428 14.5487 17.7949 14.8815 17.091 15.1478C18.9387 15.414 20.4785 15.8634 21.7102 16.4957C22.942 17.1281 23.9319 17.8603 24.6797 18.6924C25.4716 19.4911 26.0215 20.3565 26.3295 21.2884C26.6374 22.2203 26.7914 23.1356 26.7914 24.0342C26.7914 25.7649 26.3734 27.2293 25.5376 28.4275C24.7017 29.5924 23.5799 30.5576 22.1722 31.3231C20.8084 32.0553 19.2247 32.5878 17.421 32.9206C15.6613 33.2534 13.8356 33.4198 11.9439 33.4198H0.131977V32.9206ZM22.3041 24.3337C21.9522 21.771 20.8084 19.7907 18.8727 18.3928C16.9371 16.995 14.2095 16.296 10.6902 16.296H6.99479V31.7724H10.8221C14.3855 31.7724 17.179 31.1733 19.2027 29.9751C21.2703 28.7437 22.3041 27.0463 22.3041 24.8829V24.3337ZM19.5986 8.40808C19.4666 6.4777 18.5648 4.94671 16.8931 3.8151C15.2654 2.6835 13.0657 2.1177 10.2942 2.1177H6.99479V14.6985H10.4262C12.2739 14.6985 13.7696 14.5154 14.9134 14.1493C16.1012 13.7832 17.0471 13.3172 17.7509 12.7514C18.4548 12.1524 18.9387 11.5034 19.2027 10.8044C19.4666 10.1055 19.5986 9.4232 19.5986 8.75755V8.40808Z" fill="white"/>
<path d="M33.3413 0.470215H42.7776V0.969451H42.4477C42.1397 0.969451 41.8538 1.0693 41.5898 1.26899C41.3259 1.4354 41.1059 1.65174 40.9299 1.918C40.754 2.15098 40.6 2.43388 40.468 2.7667C40.38 3.06625 40.336 3.33251 40.336 3.56548V30.1748C40.336 30.4411 40.38 30.7406 40.468 31.0734C40.556 31.373 40.688 31.6559 40.864 31.9221C41.0839 32.1884 41.3039 32.4214 41.5238 32.6211C41.7878 32.8208 42.0957 32.9206 42.4477 32.9206H42.7776V33.4198H33.3413V32.9206H33.6712C34.0231 32.9206 34.3311 32.8374 34.595 32.671C34.859 32.4713 35.079 32.2383 35.2549 31.9721C35.4749 31.6725 35.6289 31.373 35.7168 31.0734C35.8048 30.7406 35.8488 30.4411 35.8488 30.1748V3.56548C35.8488 3.33251 35.8048 3.06625 35.7168 2.7667C35.6289 2.46716 35.4749 2.18426 35.2549 1.918C35.079 1.65174 34.859 1.4354 34.595 1.26899C34.3311 1.0693 34.0231 0.969451 33.6712 0.969451H33.3413V0.470215Z" fill="white"/>
<path d="M58.8897 32.9206H59.2196V33.4198H49.7832V32.9206H50.1132C50.4651 32.9206 50.7731 32.8208 51.037 32.6211C51.301 32.4214 51.5209 32.1884 51.6969 31.9221C51.9169 31.6559 52.0709 31.373 52.1588 31.0734C52.2468 30.7406 52.2908 30.4411 52.2908 30.1748V3.56548C52.2908 3.33251 52.2468 3.06625 52.1588 2.7667C52.0709 2.46716 51.9169 2.18426 51.6969 1.918C51.5209 1.65174 51.301 1.4354 51.037 1.26899C50.7731 1.0693 50.4871 0.969451 50.1792 0.969451H49.8492V0.470215H59.2856V0.969451H58.9557C58.6037 0.969451 58.2958 1.0693 58.0318 1.26899C57.7679 1.4354 57.5259 1.65174 57.3059 1.918C57.13 2.18426 56.976 2.46716 56.844 2.7667C56.756 3.06625 56.712 3.33251 56.712 3.56548V15.1478L73.4732 2.56701C73.7371 2.33403 73.8691 2.06777 73.8691 1.76823C73.8691 1.23571 73.6051 0.969451 73.0772 0.969451H72.7473V0.470215H80.7979V0.969451H80.4679C79.8521 0.969451 79.2142 1.13586 78.5543 1.46869C77.8944 1.80151 77.2345 2.21754 76.5746 2.71678L62.717 13.1508L77.3005 29.8753C77.3445 29.9418 77.5424 30.1415 77.8944 30.4744C78.2463 30.8072 78.6643 31.1566 79.1482 31.5227C79.6761 31.8889 80.248 32.2217 80.8639 32.5212C81.5238 32.7875 82.1836 32.9206 82.8435 32.9206V33.4198H81.2598C79.94 33.4198 78.8182 33.3699 77.8944 33.2701C77.0145 33.1369 76.2447 32.9373 75.5848 32.671C74.9249 32.4047 74.331 32.0719 73.8031 31.6725C73.3192 31.2731 72.8133 30.7739 72.2854 30.1748L59.4836 15.5472L56.712 17.6939V30.1748C56.712 30.4411 56.756 30.724 56.844 31.0235C56.976 31.3231 57.13 31.6226 57.3059 31.9221C57.4819 32.1884 57.7019 32.4214 57.9658 32.6211C58.2298 32.8208 58.5377 32.9206 58.8897 32.9206Z" fill="white"/>
<path d="M88.0834 0.470215H97.5198V0.969451H97.1899C96.8819 0.969451 96.596 1.0693 96.332 1.26899C96.0681 1.4354 95.8481 1.65174 95.6721 1.918C95.4962 2.15098 95.3422 2.43388 95.2102 2.7667C95.1222 3.06625 95.0782 3.33251 95.0782 3.56548V30.1748C95.0782 30.4411 95.1222 30.7406 95.2102 31.0734C95.2982 31.373 95.4302 31.6559 95.6061 31.9221C95.8261 32.1884 96.0461 32.4214 96.266 32.6211C96.53 32.8208 96.8379 32.9206 97.1899 32.9206H97.5198V33.4198H88.0834V32.9206H88.4134C88.7653 32.9206 89.0733 32.8374 89.3372 32.671C89.6012 32.4713 89.8211 32.2383 89.9971 31.9721C90.2171 31.6725 90.371 31.373 90.459 31.0734C90.547 30.7406 90.591 30.4411 90.591 30.1748V3.56548C90.591 3.33251 90.547 3.06625 90.459 2.7667C90.371 2.46716 90.2171 2.18426 89.9971 1.918C89.8211 1.65174 89.6012 1.4354 89.3372 1.26899C89.0733 1.0693 88.7653 0.969451 88.4134 0.969451H88.0834V0.470215Z" fill="white"/>
<path d="M111.454 32.9206H111.784V33.4198H104.459V32.9206H104.789C105.097 32.9206 105.383 32.8208 105.647 32.6211C105.955 32.4214 106.197 32.1884 106.373 31.9221C106.549 31.6559 106.681 31.373 106.769 31.0734C106.901 30.7406 106.967 30.4411 106.967 30.1748V3.56548C106.967 3.33251 106.923 3.06625 106.835 2.7667C106.791 2.46716 106.681 2.18426 106.505 1.918C106.329 1.65174 106.087 1.4354 105.779 1.26899C105.471 1.0693 105.097 0.969451 104.657 0.969451H104.327V0.470215H110.992L134.946 29.0266V3.56548C134.946 3.33251 134.88 3.06625 134.748 2.7667C134.66 2.46716 134.506 2.18426 134.286 1.918C134.11 1.65174 133.89 1.4354 133.626 1.26899C133.362 1.0693 133.055 0.969451 132.703 0.969451H132.373V0.470215H139.763V0.969451H139.433C139.081 0.969451 138.774 1.0693 138.51 1.26899C138.246 1.4354 138.004 1.65174 137.784 1.918C137.608 2.18426 137.476 2.46716 137.388 2.7667C137.3 3.06625 137.256 3.33251 137.256 3.56548V33.4198H133.164L109.277 4.76365V30.1748C109.277 30.4411 109.321 30.7406 109.409 31.0734C109.497 31.373 109.629 31.6559 109.805 31.9221C110.024 32.1884 110.266 32.4214 110.53 32.6211C110.794 32.8208 111.102 32.9206 111.454 32.9206Z" fill="white"/>
<path d="M146.885 0.470215H156.322V0.969451H155.992C155.684 0.969451 155.398 1.0693 155.134 1.26899C154.87 1.4354 154.65 1.65174 154.474 1.918C154.298 2.15098 154.144 2.43388 154.012 2.7667C153.924 3.06625 153.88 3.33251 153.88 3.56548V30.1748C153.88 30.4411 153.924 30.7406 154.012 31.0734C154.1 31.373 154.232 31.6559 154.408 31.9221C154.628 32.1884 154.848 32.4214 155.068 32.6211C155.332 32.8208 155.64 32.9206 155.992 32.9206H156.322V33.4198H146.885V32.9206H147.215C147.567 32.9206 147.875 32.8374 148.139 32.671C148.403 32.4713 148.623 32.2383 148.799 31.9721C149.019 31.6725 149.173 31.373 149.261 31.0734C149.349 30.7406 149.393 30.4411 149.393 30.1748V3.56548C149.393 3.33251 149.349 3.06625 149.261 2.7667C149.173 2.46716 149.019 2.18426 148.799 1.918C148.623 1.65174 148.403 1.4354 148.139 1.26899C147.875 1.0693 147.567 0.969451 147.215 0.969451H146.885V0.470215Z" fill="white"/>
<path d="M75.4409 56.8245C74.8006 57.6076 74.1849 58.301 73.5938 58.9047C73.0027 59.492 72.4035 59.9978 71.796 60.4219C71.2377 60.8298 70.6631 61.1724 70.072 61.4498C69.4974 61.7108 68.8899 61.9229 68.2495 62.0861C67.6092 62.2492 66.9278 62.3634 66.2054 62.4287C65.483 62.5103 64.6949 62.551 63.8411 62.551C62.8068 62.551 61.6164 62.3961 60.2701 62.0861C58.9237 61.7761 57.5035 61.409 56.0094 60.9848C55.2213 61.1969 54.2608 61.3845 53.1279 61.5477C52.0115 61.7108 50.8458 61.825 49.6308 61.8903C48.4158 61.9719 47.209 61.9963 46.0105 61.9637C44.8119 61.9311 43.7365 61.8169 42.7842 61.6211C41.8483 61.409 41.0849 61.1153 40.4938 60.7401C39.9027 60.3648 39.6072 59.8754 39.6072 59.2717C39.6072 59.027 39.6893 58.766 39.8535 58.4886C40.0176 58.195 40.2721 57.9258 40.6169 57.681C40.9617 57.4363 41.405 57.2324 41.9468 57.0692C42.5051 56.9061 43.17 56.8245 43.9417 56.8245C44.6149 56.8245 45.4358 56.9061 46.4045 57.0692C47.3896 57.2161 48.4568 57.4118 49.6061 57.6566C50.7555 57.9013 51.954 58.1705 53.2018 58.4642C54.4661 58.7578 55.7139 59.0433 56.9453 59.3207C57.9961 58.7497 58.9566 58.1297 59.8268 57.4608C60.7134 56.7919 61.5671 56.0414 62.3881 55.2093C63.209 54.3773 64.0299 53.4473 64.8509 52.4195C65.6718 51.3753 66.5584 50.2007 67.5107 48.8955C68.2167 47.9166 68.9227 46.954 69.6287 46.0077C70.3511 45.0451 71.0736 44.0989 71.796 43.1689C71.1885 43.2505 70.5892 43.3158 69.9981 43.3647C69.4235 43.4137 68.8488 43.4381 68.2742 43.4381C66.4681 43.4381 64.7442 43.226 63.1023 42.8018C61.4604 42.3777 60.0074 41.774 58.7431 40.9909C57.4953 40.2078 56.4938 39.2697 55.7385 38.1766C54.9997 37.0672 54.6303 35.8272 54.6303 34.4568C54.6303 33.4126 54.8273 32.4419 55.2213 31.5446C55.6318 30.6309 56.1818 29.807 56.8714 29.0728C57.561 28.3224 58.3655 27.6616 59.285 27.0906C60.2044 26.5032 61.1813 26.0138 62.2157 25.6222C63.2501 25.2307 64.3091 24.937 65.3927 24.7412C66.4763 24.5291 67.5353 24.4231 68.5697 24.4231C69.7026 24.4231 70.7288 24.5047 71.6482 24.6678C72.5676 24.831 73.3722 25.0023 74.0617 25.1817C74.8498 25.4101 75.5558 25.663 76.1798 25.9404C76.1798 26.0383 76.1469 26.128 76.0812 26.2096C76.0156 26.2912 75.9171 26.3319 75.7857 26.3319C75.1618 26.0709 74.4804 25.8343 73.7416 25.6222C73.1177 25.4428 72.387 25.2796 71.5497 25.1328C70.7288 24.9696 69.8504 24.8881 68.9145 24.8881C68.0607 24.8881 67.1659 24.9696 66.23 25.1328C65.3106 25.2796 64.3994 25.5162 63.4963 25.8425C62.5933 26.1525 61.7313 26.5603 60.9104 27.0661C60.1059 27.5556 59.3917 28.1429 58.7678 28.8281C58.1603 29.5133 57.6759 30.2965 57.3147 31.1775C56.9535 32.0422 56.7729 33.0129 56.7729 34.0897C56.7729 35.4928 57.0192 36.7001 57.5117 37.7116C58.0207 38.7068 58.6857 39.547 59.5066 40.2322C60.344 40.9175 61.3044 41.4559 62.3881 41.8474C63.4717 42.2227 64.5964 42.4919 65.7621 42.655C66.9443 42.8018 68.1182 42.8589 69.2839 42.8263C70.4661 42.7774 71.5661 42.6632 72.5841 42.4837C73.5692 41.1785 74.4804 39.9386 75.3178 38.7639C76.1551 37.5892 76.9104 36.5369 77.5836 35.607C78.7 34.1386 79.874 32.7274 81.1054 31.3732C82.3532 30.0191 83.6338 28.8281 84.9473 27.8003C86.2608 26.7724 87.5907 25.9567 88.9371 25.353C90.2998 24.7331 91.6461 24.4231 92.9761 24.4231C93.5179 24.4231 93.9612 24.4884 94.306 24.6189C94.6672 24.7331 94.9463 24.8962 95.1433 25.1083C95.3568 25.3204 95.4963 25.557 95.562 25.818C95.6441 26.0791 95.6851 26.3401 95.6851 26.6011C95.6687 27.6453 95.365 28.7221 94.7739 29.8315C94.1992 30.9409 93.4111 32.034 92.4096 33.1108C91.4245 34.1876 90.267 35.2317 88.9371 36.2432C87.6236 37.2385 86.228 38.1521 84.7503 38.9842C83.289 39.7999 81.7867 40.5096 80.2434 41.1133C78.7164 41.7169 77.2388 42.1492 75.8103 42.4103C75.2685 43.3402 74.7267 44.2539 74.1849 45.1512C73.6431 46.0485 73.1259 46.8969 72.6333 47.6963C72.1408 48.4957 71.6728 49.2299 71.2295 49.8988C70.8026 50.5677 70.4168 51.1306 70.072 51.5874C69.2839 52.6642 68.4712 53.6186 67.6338 54.4507C66.7965 55.2664 65.9263 56.0006 65.0233 56.6532C64.1202 57.3058 63.1762 57.8931 62.1911 58.4152C61.2059 58.921 60.1716 59.386 59.0879 59.8101C59.0879 59.8591 59.1208 59.8836 59.1864 59.8836C59.3506 59.8999 59.5559 59.9325 59.8021 59.9814C60.0648 60.0141 60.3357 60.0549 60.6149 60.1038C60.9104 60.1528 61.1977 60.2099 61.4768 60.2751C61.7724 60.3241 62.0187 60.3567 62.2157 60.373C62.7903 60.4546 63.3157 60.5198 63.7919 60.5688C64.2844 60.6014 64.6539 60.6177 64.9001 60.6177C66.0494 60.6177 67.0756 60.5688 67.9786 60.4709C68.8817 60.373 69.719 60.1854 70.4907 59.908C71.2788 59.6307 72.0258 59.2391 72.7318 58.7334C73.4378 58.2113 74.1685 57.5342 74.9237 56.7021L75.4409 56.8245ZM76.032 41.8229C76.7544 41.6435 77.5753 41.3743 78.4948 41.0154C79.4307 40.6564 80.4158 40.2322 81.4501 39.7428C82.4845 39.2534 83.5353 38.6986 84.6025 38.0787C85.6862 37.4587 86.7288 36.798 87.7303 36.0964C88.7482 35.3949 89.7005 34.6607 90.5871 33.8939C91.4737 33.1271 92.2372 32.3521 92.8775 31.569C93.5343 30.7696 94.0433 29.9702 94.4045 29.1707C94.7657 28.355 94.9299 27.5556 94.897 26.7724C94.8806 26.3809 94.7821 26.0872 94.6015 25.8914C94.4209 25.6793 94.2075 25.5325 93.9612 25.4509C93.7149 25.353 93.4604 25.2959 93.1977 25.2796C92.9514 25.2633 92.738 25.2552 92.5574 25.2552C91.3917 25.2552 90.1849 25.6059 88.9371 26.3075C87.6892 26.9927 86.4578 27.9063 85.2429 29.0484C84.0279 30.1904 82.8622 31.4956 81.7457 32.964C80.6456 34.4323 79.6441 35.9333 78.7411 37.4669C78.3634 38.0705 77.9201 38.7639 77.4112 39.547C76.9186 40.3301 76.4589 41.0888 76.032 41.8229ZM54.3347 60.4464C54.3347 60.4301 54.3265 60.4138 54.3101 60.3975H54.2855C54.1377 60.2833 53.8175 60.1283 53.325 59.9325C52.8488 59.7367 52.2578 59.5328 51.5518 59.3207C50.8458 59.0923 50.0741 58.872 49.2367 58.6599C48.3994 58.4315 47.5538 58.2439 46.7 58.0971C45.8463 57.9339 45.0253 57.8197 44.2372 57.7545C43.4491 57.6729 42.7514 57.6647 42.1439 57.73C41.5364 57.7789 41.0602 57.9176 40.7154 58.146C40.3871 58.3744 40.2475 58.7089 40.2968 59.1494C40.3296 59.4104 40.4856 59.647 40.7647 59.8591C41.0438 60.0712 41.3886 60.267 41.7991 60.4464C42.226 60.6096 42.6939 60.7564 43.2029 60.8869C43.7283 61.0174 44.2455 61.1235 44.7544 61.2051C45.2634 61.2866 45.7395 61.3519 46.1829 61.4008C46.6426 61.4335 47.0202 61.4498 47.3157 61.4498C48.0217 61.4498 48.7195 61.4335 49.4091 61.4008C50.1151 61.3519 50.8211 61.2622 51.5271 61.1316C52.151 61.0338 52.7175 60.9114 53.2265 60.7646C53.7519 60.6177 54.1213 60.5117 54.3347 60.4464Z" fill="white"/>
<path d="M89.7616 44.9554C89.7616 45.608 89.2444 46.073 88.21 46.3503C87.307 46.2524 86.8555 45.869 86.8555 45.2001C86.8555 44.1397 87.3563 43.6094 88.3578 43.6094C89.2937 43.6094 89.7616 44.0581 89.7616 44.9554ZM85.5748 51.3182C85.5748 51.6282 85.4189 51.9545 85.1069 52.2971L78.8514 59.1004C78.638 59.3288 78.5312 59.5573 78.5312 59.7857C78.5312 60.063 78.7365 60.2017 79.1469 60.2017C79.5574 60.2017 79.9761 60.063 80.403 59.7857C81.3881 58.9699 82.8001 57.7952 84.639 56.2616C84.6554 56.2453 84.7211 56.2209 84.836 56.1882C85.0166 56.2209 85.1069 56.3187 85.1069 56.4819C85.1069 56.5961 84.1464 57.4363 82.2254 59.0026C80.3045 60.5525 79.1223 61.4498 78.679 61.6945C78.3178 61.9229 77.8006 62.0371 77.1274 62.0371C76.0766 62.0371 75.5513 61.3845 75.5513 60.0793C75.5513 59.4594 75.7401 58.9291 76.1177 58.4886L80.4769 53.4963C77.6364 55.6498 76.1916 56.7266 76.1423 56.7266C75.9617 56.7266 75.8714 56.6287 75.8714 56.433C75.8714 56.3677 75.9125 56.3106 75.9946 56.2616L82.3978 51.3427C82.6277 51.1796 83.2516 51.098 84.2696 51.098H85.2793C85.4763 51.098 85.5748 51.1714 85.5748 51.3182Z" fill="white"/>
<path d="M101.817 56.4085C101.817 56.4901 101.792 56.5716 101.743 56.6532L96.817 60.7156C95.914 61.4661 95.0849 61.8413 94.3296 61.8413C93.1311 61.8413 92.5318 61.1153 92.5318 59.6633C92.5318 59.1575 92.737 58.6926 93.1475 58.2684L98.3686 52.811C98.6477 52.5337 98.7873 52.2563 98.7873 51.979C98.7873 51.7669 98.6395 51.6608 98.344 51.6608C97.7857 51.6608 95.9222 53.0476 92.7534 55.8211C91.8011 56.6532 90.069 58.5213 87.5569 61.4253C87.3106 61.7027 86.5472 61.8413 85.2665 61.8413C84.5277 61.8413 84.1582 61.7679 84.1582 61.6211C84.1582 61.4416 84.2321 61.254 84.3799 61.0582C84.5277 60.8624 84.6098 60.7156 84.6262 60.6177L91.7437 52.9089C92.0228 52.5989 92.1623 52.3216 92.1623 52.0769C92.1623 51.8485 92.0146 51.7343 91.719 51.7343C91.2265 51.7343 90.0197 52.5582 88.0987 54.206C86.1777 55.8538 85.2419 56.6777 85.2911 56.6777C85.1105 56.6777 85.0202 56.5798 85.0202 56.384C85.0202 56.3024 86.6457 54.8504 89.8966 52.0279C90.7832 51.2448 91.6287 50.8533 92.4333 50.8533C93.6154 50.8533 94.2065 51.5466 94.2065 52.9334C94.2065 53.4229 94.0423 53.8715 93.7139 54.2794L96.5215 51.9545C97.4409 51.1714 98.2865 50.7798 99.0582 50.7798C100.24 50.7798 100.831 51.4895 100.831 52.9089C100.831 53.4473 100.618 53.9368 100.191 54.3773L94.9946 59.8346C94.7319 60.1283 94.6005 60.4219 94.6005 60.7156C94.6005 60.9114 94.7072 61.0093 94.9207 61.0093C95.5118 61.0093 96.7349 60.1935 98.5903 58.562C100.462 56.9306 101.447 56.1148 101.546 56.1148C101.726 56.1148 101.817 56.2127 101.817 56.4085Z" fill="white"/>
<path d="M104.267 66.2953C104.267 66.279 104.258 66.2627 104.242 66.2464H104.217C103.347 66.7521 102.411 67.3232 101.41 67.9594C100.408 68.612 99.4148 69.3136 98.4297 70.0641C97.4281 70.8145 96.4759 71.614 95.5728 72.4624C94.6534 73.3107 93.8571 74.1836 93.1839 75.0809C93.069 75.2114 92.9048 75.4154 92.6913 75.6927C92.4615 75.9864 92.2398 76.3045 92.0264 76.6471C91.813 76.9897 91.6241 77.3405 91.46 77.6994C91.2958 78.0584 91.2137 78.3847 91.2137 78.6783C91.2137 79.1515 91.3943 79.388 91.7555 79.388C92.3466 79.388 92.9458 79.2004 93.5533 78.8252C94.1608 78.4499 94.8422 77.8707 95.5975 77.0876C96.3527 76.3045 97.2065 75.3012 98.1588 74.0775C99.111 72.8702 100.228 71.4182 101.508 69.7215C101.968 69.1015 102.428 68.4897 102.887 67.886C103.363 67.2987 103.823 66.7684 104.267 66.2953ZM112.812 50.9267C112.566 50.9267 112.238 51.049 111.827 51.2938C111.433 51.5385 110.998 51.8648 110.522 52.2726C110.046 52.6805 109.553 53.1537 109.044 53.692C108.535 54.2304 108.043 54.7933 107.567 55.3806C107.123 55.919 106.705 56.4737 106.311 57.0448C105.917 57.5995 105.572 58.1297 105.276 58.6355C104.981 59.1412 104.743 59.598 104.562 60.0059C104.398 60.3975 104.316 60.6911 104.316 60.8869C104.316 61.3601 104.521 61.5966 104.931 61.5966C105.276 61.5966 105.728 61.4253 106.286 61.0827C106.861 60.7401 107.485 60.2833 108.158 59.7122C108.847 59.1249 109.545 58.4478 110.251 57.681C110.957 56.8979 111.622 56.0659 112.246 55.1849C112.656 54.6138 112.985 54.0265 113.231 53.4229C113.477 52.8192 113.601 52.2808 113.601 51.8077C113.601 51.5303 113.535 51.3182 113.404 51.1714C113.289 51.0082 113.092 50.9267 112.812 50.9267ZM109.586 62.3308C115.218 58.2358 117.993 56.1882 117.91 56.1882C118.107 56.1882 118.206 56.2861 118.206 56.4819C118.206 56.5635 118.173 56.6369 118.107 56.7021L108.306 64.1907C107.649 64.9738 106.91 65.9119 106.089 67.005C105.268 68.0981 104.398 69.232 103.478 70.4067C102.559 71.5977 101.598 72.7723 100.597 73.9307C99.5954 75.0891 98.5939 76.1251 97.5923 77.0387C96.5744 77.9686 95.5728 78.7191 94.5877 79.2901C93.5862 79.8612 92.6257 80.1467 91.7062 80.1467C91.1808 80.1467 90.7704 79.9917 90.4748 79.6817C90.1629 79.388 90.0069 78.9557 90.0069 78.3847C90.0069 77.6994 90.2696 76.949 90.795 76.1332C91.304 75.3338 91.9771 74.518 92.8145 73.686C93.6518 72.8539 94.6123 72.0219 95.696 71.1898C96.7632 70.3577 97.855 69.5665 98.9715 68.816C100.072 68.0655 101.147 67.3721 102.198 66.7358C103.265 66.1159 104.209 65.5856 105.03 65.1451C105.605 64.4109 106.163 63.6849 106.705 62.9671C107.263 62.2655 107.846 61.5395 108.453 60.789C108.601 60.6096 108.765 60.4056 108.946 60.1772C109.143 59.9488 109.34 59.7122 109.537 59.4675C109.734 59.2228 109.931 58.9781 110.128 58.7334C110.325 58.4723 110.506 58.2357 110.67 58.0237C110.719 57.991 110.744 57.9421 110.744 57.8768C110.251 58.4478 109.726 59.0026 109.167 59.5409C108.626 60.0793 108.084 60.5606 107.542 60.9848C107 61.3927 106.483 61.719 105.99 61.9637C105.498 62.2084 105.063 62.3308 104.685 62.3308C103.914 62.3308 103.355 62.0942 103.01 61.6211C102.682 61.148 102.518 60.5851 102.518 59.9325C102.518 59.3125 102.666 58.6844 102.961 58.0481C103.257 57.3955 103.643 56.7593 104.119 56.1393C104.48 55.6662 104.882 55.1522 105.326 54.5975C105.769 54.0428 106.229 53.5697 106.705 53.1781C106.738 53.1455 106.754 53.121 106.754 53.1047V53.0802C106.097 53.4718 105.465 53.9205 104.858 54.4262C104.25 54.9157 103.708 55.3888 103.232 55.8456C102.674 56.384 102.149 56.9142 101.656 57.4363H100.794C101.927 56.2127 102.978 55.2012 103.946 54.4017C104.915 53.6023 105.834 52.9416 106.705 52.4195C107.017 52.2237 107.386 52.0116 107.813 51.7832C108.24 51.5385 108.7 51.3101 109.192 51.098C109.701 50.8696 110.235 50.6819 110.793 50.5351C111.368 50.3883 111.95 50.3149 112.542 50.3149C113.231 50.3149 113.699 50.4372 113.945 50.6819C114.192 50.9267 114.315 51.253 114.315 51.6608C114.315 51.9708 114.257 52.3053 114.142 52.6642C114.027 53.0068 113.863 53.3739 113.65 53.7655C113.65 53.7981 113.658 53.8144 113.674 53.8144H113.699C114.027 53.3086 114.38 52.7866 114.758 52.2482C115.152 51.6935 115.563 51.1306 115.989 50.5596H118.699C117.878 51.669 117.024 52.8029 116.137 53.9612C115.76 54.467 115.357 55.0054 114.93 55.5764C114.504 56.1311 114.06 56.7103 113.601 57.314C113.157 57.9013 112.706 58.4968 112.246 59.1004C111.786 59.7041 111.335 60.2996 110.891 60.8869C110.744 61.0827 110.629 61.2377 110.547 61.3519C110.481 61.4661 110.415 61.5722 110.35 61.67C110.3 61.7516 110.235 61.8413 110.153 61.9392C110.071 62.0371 109.947 62.1676 109.783 62.3308H109.586Z" fill="white"/>
<path d="M132.231 52.6642C132.231 54.8015 129.103 56.5961 122.848 58.0481C121.764 59.1575 121.222 60.0386 121.222 60.6911C121.222 61.2785 121.502 61.5722 122.06 61.5722C123.258 61.5722 124.867 60.8461 126.887 59.3941C129.629 57.42 131.131 56.3677 131.394 56.2372C131.574 56.2861 131.665 56.384 131.665 56.5308C131.665 56.6287 130.959 57.159 129.547 58.1215C127.905 59.2473 127.084 59.8101 127.084 59.8101C125.212 61.2622 123.537 61.9882 122.06 61.9882C120.451 61.9882 119.646 61.1969 119.646 59.6144C119.646 57.4445 121.296 55.193 124.596 52.86C123.25 53.7084 121.239 54.9809 118.563 56.6777L118.39 56.7511C118.242 56.7348 118.169 56.645 118.169 56.4819C118.169 56.4003 118.193 56.3187 118.242 56.2372C120.919 54.2957 123.488 52.8355 125.951 51.8566C126.247 51.7587 126.682 51.6037 127.256 51.3916C128.701 50.8043 129.76 50.5106 130.433 50.5106C131.632 50.5106 132.231 51.2285 132.231 52.6642ZM131.074 51.8077C131.074 51.2693 130.836 51.0001 130.359 51.0001C129.506 51.0001 127.199 53.0966 123.439 57.2895C123.849 57.2895 124.449 57.1019 125.237 56.7266L126.862 55.919C127.65 55.5438 128.496 54.9646 129.399 54.1815C130.515 53.2026 131.074 52.4113 131.074 51.8077Z" fill="white"/>
<path d="M143.178 50.4862C143.178 50.7146 143.005 51.0001 142.661 51.3427L137.267 57.1182C136.692 57.7055 136.118 58.301 135.543 58.9047C134.771 59.753 134.386 60.4219 134.386 60.9114C134.386 61.1398 134.566 61.254 134.927 61.254C135.453 61.254 136.701 60.4138 138.671 58.7334C140.641 57.0529 141.7 56.2045 141.848 56.1882C142.028 56.2209 142.119 56.3187 142.119 56.4819C142.119 56.5308 142.078 56.5961 141.996 56.6777L136.922 60.8135C135.97 61.6129 135.124 62.0127 134.386 62.0127C133.795 62.0127 133.318 61.7516 132.957 61.2295C132.645 60.7727 132.489 60.2425 132.489 59.6388C132.489 58.8394 133.097 57.836 134.312 56.6287L137.267 53.692C136.939 53.8226 136.438 53.9612 135.765 54.1081C133.548 55.7885 132.374 56.6287 132.243 56.6287C132.062 56.6287 131.972 56.5308 131.972 56.3351C131.972 56.3351 133.056 55.503 135.223 53.8389C134.862 53.5615 134.681 53.2189 134.681 52.811C134.681 52.3216 134.845 51.8566 135.174 51.4161C135.502 50.9593 135.904 50.7309 136.38 50.7309C137.07 50.7309 137.415 51.0817 137.415 51.7832C137.415 52.0279 137.177 52.5011 136.701 53.2026C137.292 53.17 138.359 52.6316 139.902 51.5874C141.462 50.5433 142.357 50.0212 142.587 50.0212C142.981 50.0212 143.178 50.1762 143.178 50.4862Z" fill="white"/>
<path d="M156.218 44.9554C156.218 45.608 155.701 46.073 154.666 46.3503C153.763 46.2524 153.312 45.869 153.312 45.2001C153.312 44.1397 153.812 43.6094 154.814 43.6094C155.75 43.6094 156.218 44.0581 156.218 44.9554ZM152.031 51.3182C152.031 51.6282 151.875 51.9545 151.563 52.2971L145.308 59.1004C145.094 59.3288 144.987 59.5573 144.987 59.7857C144.987 60.063 145.193 60.2017 145.603 60.2017C146.014 60.2017 146.432 60.063 146.859 59.7857C147.844 58.9699 149.256 57.7952 151.095 56.2616C151.112 56.2453 151.177 56.2209 151.292 56.1882C151.473 56.2209 151.563 56.3187 151.563 56.4819C151.563 56.5961 150.603 57.4363 148.682 59.0026C146.761 60.5525 145.578 61.4498 145.135 61.6945C144.774 61.9229 144.257 62.0371 143.584 62.0371C142.533 62.0371 142.007 61.3845 142.007 60.0793C142.007 59.4594 142.196 58.9291 142.574 58.4886L146.933 53.4963C144.093 55.6498 142.648 56.7266 142.599 56.7266C142.418 56.7266 142.328 56.6287 142.328 56.433C142.328 56.3677 142.369 56.3106 142.451 56.2616L148.854 51.3427C149.084 51.1796 149.708 51.098 150.726 51.098H151.735C151.933 51.098 152.031 51.1714 152.031 51.3182Z" fill="white"/>
<path d="M165.514 52.6642C165.514 54.8015 162.387 56.5961 156.131 58.0481C155.047 59.1575 154.506 60.0386 154.506 60.6911C154.506 61.2785 154.785 61.5722 155.343 61.5722C156.542 61.5722 158.151 60.8461 160.17 59.3941C162.912 57.42 164.414 56.3677 164.677 56.2372C164.858 56.2861 164.948 56.384 164.948 56.5308C164.948 56.6287 164.242 57.159 162.83 58.1215C161.188 59.2473 160.367 59.8101 160.367 59.8101C158.495 61.2622 156.821 61.9882 155.343 61.9882C153.734 61.9882 152.929 61.1969 152.929 59.6144C152.929 57.4445 154.58 55.193 157.88 52.86C156.533 53.7084 154.522 54.9809 151.846 56.6777L151.673 56.7511C151.526 56.7348 151.452 56.645 151.452 56.4819C151.452 56.4003 151.476 56.3187 151.526 56.2372C154.202 54.2957 156.771 52.8355 159.234 51.8566C159.53 51.7587 159.965 51.6037 160.54 51.3916C161.984 50.8043 163.043 50.5106 163.717 50.5106C164.915 50.5106 165.514 51.2285 165.514 52.6642ZM164.357 51.8077C164.357 51.2693 164.119 51.0001 163.643 51.0001C162.789 51.0001 160.482 53.0966 156.722 57.2895C157.133 57.2895 157.732 57.1019 158.52 56.7266L160.145 55.919C160.934 55.5438 161.779 54.9646 162.682 54.1815C163.799 53.2026 164.357 52.4113 164.357 51.8077Z" fill="white"/>
</svg>
