<svg width="24" height="24" viewBox="0 0 24 24" fill="none" xmlns="http://www.w3.org/2000/svg">
<path d="M16.2463 13.4813L19.844 9.98582C20.0131 9.82043 20.0744 9.57885 20.0001 9.354C19.9276 9.12915 19.7362 8.96748 19.5021 8.93403L14.5367 8.22044L12.3235 3.71781C12.2194 3.50596 12.0076 3.37402 11.7697 3.37402C11.5337 3.37402 11.3219 3.50596 11.2159 3.71781L9.00272 8.21859L4.03923 8.93217C3.80509 8.96562 3.61368 9.12729 3.54121 9.35214C3.46874 9.577 3.5282 9.82043 3.69731 9.98396L7.2931 13.4794L6.43828 18.4225C6.3974 18.6566 6.49217 18.887 6.68358 19.0264C6.79136 19.1044 6.91772 19.1453 7.04594 19.1453C7.14443 19.1453 7.24292 19.1212 7.33398 19.0729L11.7697 16.7333L16.2055 19.0729C16.4154 19.1825 16.6645 19.1658 16.8559 19.0264C17.0473 18.887 17.142 18.6566 17.1011 18.4225L16.2463 13.4813ZM16.5622 18.6231C16.5232 18.651 16.4823 18.6547 16.4396 18.6324L11.8868 16.2297C11.8496 16.2111 11.8106 16.1999 11.7697 16.1999C11.7288 16.1999 11.6898 16.2092 11.6526 16.2297L7.09984 18.6324C7.05709 18.6547 7.01621 18.6529 6.97719 18.6231C6.93816 18.5953 6.9233 18.5563 6.93073 18.5079L7.80784 13.4367C7.82271 13.3549 7.79484 13.2731 7.73537 13.2155L4.04481 9.62717C4.0095 9.59372 4.00021 9.55284 4.01507 9.50824C4.02994 9.46178 4.06153 9.43577 4.10985 9.42833L9.20528 8.69431C9.28704 8.68316 9.35766 8.63113 9.39296 8.55679L11.6657 3.93894C11.6861 3.8962 11.7214 3.8739 11.7697 3.8739C11.818 3.8739 11.8533 3.8962 11.8738 3.93894L14.1446 8.55865C14.1818 8.63298 14.2524 8.68316 14.3323 8.69617L19.4277 9.42833C19.476 9.43577 19.5076 9.46178 19.5225 9.50824C19.5374 9.5547 19.5281 9.59372 19.4928 9.62717L15.8022 13.2137C15.7427 13.2713 15.7167 13.3549 15.7297 13.4348L16.6068 18.5061C16.6161 18.5563 16.6013 18.5934 16.5622 18.6231ZM20.1041 15.7707C20.0595 15.8562 19.9722 15.9045 19.883 15.9045C19.844 15.9045 19.8031 15.8952 19.7678 15.8766L18.3072 15.1073C18.1845 15.0422 18.1381 14.8917 18.2031 14.7691C18.2682 14.6464 18.4187 14.6 18.5413 14.665L20.0019 15.4343C20.1227 15.4975 20.1692 15.648 20.1041 15.7707ZM5.33818 14.7691C5.40322 14.8917 5.3549 15.0422 5.23411 15.1073L3.7735 15.8766C3.73447 15.8952 3.69545 15.9045 3.65642 15.9045C3.56723 15.9045 3.47989 15.8562 3.43529 15.7707C3.37025 15.648 3.41856 15.4975 3.53935 15.4325L4.99997 14.6631C5.12261 14.6 5.27314 14.6464 5.33818 14.7691ZM5.41251 5.38098C5.31588 5.28249 5.31588 5.12453 5.41251 5.0279C5.50914 4.93127 5.66895 4.93127 5.76558 5.0279L6.96232 6.22464C7.05895 6.32313 7.05895 6.48108 6.96232 6.57772C6.91401 6.62603 6.84897 6.65019 6.78578 6.65019C6.7226 6.65019 6.65756 6.62603 6.60925 6.57772L5.41251 5.38098ZM16.5753 6.57957C16.4786 6.48108 16.4786 6.32313 16.5753 6.2265L17.772 5.02976C17.8705 4.93313 18.0284 4.93313 18.1251 5.02976C18.2217 5.12825 18.2217 5.2862 18.1251 5.38283L16.9283 6.57957C16.88 6.62789 16.815 6.65205 16.7518 6.65205C16.6886 6.65205 16.6236 6.62789 16.5753 6.57957ZM12.0187 19.1249V20.7509C12.0187 20.8884 11.9072 20.9999 11.7697 20.9999C11.6322 20.9999 11.5207 20.8884 11.5207 20.7509V19.1249C11.5207 18.9874 11.6322 18.8759 11.7697 18.8759C11.9072 18.8759 12.0187 18.9874 12.0187 19.1249Z" fill="#624C49"/>
</svg>
