<svg width="14" height="15" viewBox="0 0 14 15" fill="none" xmlns="http://www.w3.org/2000/svg">
<g clip-path="url(#clip0_264_12716)">
<path fill-rule="evenodd" clip-rule="evenodd" d="M8.75016 11.5834C8.75025 11.8778 8.63909 12.1612 8.43895 12.3771C8.23881 12.5929 7.9645 12.7251 7.67099 12.7472L7.58349 12.7501H6.41682C6.12249 12.7502 5.83899 12.639 5.62317 12.4389C5.40735 12.2387 5.27515 11.9644 5.25307 11.6709L5.25016 11.5834H8.75016ZM7.00016 1.66675C8.05889 1.66673 9.07625 2.07794 9.83762 2.81362C10.599 3.54931 11.0449 4.55197 11.0812 5.61008L11.0835 5.75008V7.94575L12.1463 10.0714C12.1927 10.1642 12.2159 10.2668 12.214 10.3705C12.212 10.4741 12.185 10.5758 12.1352 10.6668C12.0853 10.7577 12.0142 10.8352 11.9279 10.8927C11.8415 10.9501 11.7425 10.9858 11.6394 10.9966L11.5723 11.0001H2.42799C2.32425 11.0001 2.22205 10.975 2.13015 10.9269C2.03825 10.8787 1.95939 10.8091 1.90032 10.7238C1.84125 10.6385 1.80373 10.5402 1.79099 10.4372C1.77825 10.3343 1.79066 10.2298 1.82716 10.1327L1.85399 10.0714L2.91682 7.94575V5.75008C2.91682 4.66711 3.34703 3.6285 4.1128 2.86273C4.87858 2.09696 5.91719 1.66675 7.00016 1.66675ZM7.00016 2.83341C6.24855 2.83346 5.52598 3.12365 4.98312 3.64347C4.44026 4.16329 4.11903 4.8726 4.08641 5.6235L4.08349 5.75008V7.94575C4.0835 8.09042 4.05659 8.23383 4.00416 8.36866L3.96041 8.46783L3.27791 9.83341H10.723L10.0405 8.46725C9.97575 8.33791 9.93559 8.19767 9.92207 8.05366L9.91682 7.94575V5.75008C9.91682 4.97653 9.60953 4.23467 9.06255 3.68769C8.51557 3.14071 7.7737 2.83341 7.00016 2.83341Z" fill="#624C49"/>
</g>
<defs>
<clipPath id="clip0_264_12716">
<rect y="0.5" width="14" height="14" rx="7" fill="white"/>
</clipPath>
</defs>
</svg>
