<svg width="29" height="22" viewBox="0 0 29 22" fill="none" xmlns="http://www.w3.org/2000/svg">
<path d="M28.9498 6.15899C28.8687 5.26011 28.7354 3.75045 28.0169 3.22611C27.7735 3.04748 27.4954 2.98986 27.1767 3.05901C16.6479 5.29468 5.11664 3.59488 1.8311 3.01867C1.48921 2.96105 1.1821 3.03596 0.921342 3.25492C0.307114 3.76774 0 5.02387 0 7.08668C0 7.87608 0.336087 8.23909 0.625817 8.41195C0.521514 9.14949 0.44039 9.74875 0.376649 10.2731C0.359265 10.3883 0.359265 10.5093 0.36506 10.6361C0.376649 10.7974 0.411417 10.9645 0.463568 11.1201C0.463568 11.1259 0.469363 11.1374 0.469363 11.1432C0.469363 11.1432 0.469363 11.1489 0.475158 11.1547C0.486747 11.1893 0.498336 11.2238 0.51572 11.2526L0.527309 11.2757C0.538898 11.3045 0.556282 11.3391 0.573666 11.3679L0.59105 11.3967C0.596844 11.414 0.608434 11.4255 0.620023 11.4428C0.625817 11.4543 0.631612 11.4658 0.643201 11.4831C0.648996 11.4889 0.65479 11.5004 0.660585 11.5062L0.66638 11.5119C0.683763 11.5407 0.701147 11.5638 0.718531 11.5926C0.724326 11.5984 0.73012 11.6041 0.735915 11.6157L0.741709 11.6214C0.776477 11.6675 0.811245 11.7078 0.851807 11.7539L0.863396 11.7655C0.869191 11.7712 0.874985 11.7828 0.886575 11.7885C0.892369 11.7943 0.892369 11.7943 0.898164 11.8C0.909753 11.8116 0.921342 11.8231 0.932931 11.8346L0.944521 11.8461C0.95611 11.8577 0.973494 11.8749 0.985083 11.8865C0.990877 11.8922 0.990877 11.8922 0.996672 11.898C1.01406 11.9095 1.02565 11.9268 1.04303 11.9383H1.04882C1.072 11.9556 1.08939 11.9729 1.11256 11.9902C1.12995 12.0017 1.14733 12.0132 1.16472 12.0305C1.18789 12.0478 1.21107 12.0651 1.23425 12.0766L1.24005 12.0824C1.25743 12.0939 1.26902 12.0997 1.2864 12.1112C1.31538 12.1285 1.34435 12.1458 1.37332 12.1573L1.38491 12.163C1.3965 12.1688 1.40809 12.1746 1.41388 12.1803C1.43706 12.1919 1.46024 12.2034 1.48342 12.2149C1.5066 12.2264 1.52398 12.2322 1.54716 12.2437C1.66305 12.2898 1.77894 12.3417 1.90642 12.3993C2.16718 12.5145 2.42794 12.6413 2.62496 12.7393C2.73505 12.7911 2.83936 12.843 2.94366 12.8948L2.97843 12.9121C3.16965 13.0043 3.36667 13.0965 3.55789 13.1945C4.23586 13.5171 4.9428 13.8571 5.56861 14.2835C6.40304 14.8539 7.17951 15.5454 7.82272 16.1504C7.85169 16.1792 7.88646 16.208 7.91543 16.2368L7.9444 16.2656C7.96758 16.2887 7.98497 16.306 8.00814 16.329L8.04291 16.3636C8.0603 16.3809 8.08347 16.4039 8.10086 16.4212L8.13562 16.4558C8.15301 16.4788 8.17619 16.4961 8.19357 16.5192L8.22254 16.5537C8.24572 16.5768 8.26311 16.5998 8.28628 16.6229L8.31526 16.6517C8.33844 16.6805 8.36162 16.7035 8.38479 16.7324L8.40218 16.7496C8.51807 16.8764 8.62817 17.0147 8.73826 17.1415C9.1265 17.5967 9.52054 18.0576 9.97831 18.4322C9.9841 18.4379 9.9899 18.4437 9.99569 18.4437C10.0305 18.4725 10.071 18.5013 10.1058 18.5301C10.1406 18.5589 10.1811 18.5877 10.2217 18.6108C10.2275 18.6165 10.2333 18.6165 10.2391 18.6223C10.3723 18.7145 10.5056 18.7952 10.6505 18.8701C10.691 18.8874 10.7258 18.9104 10.7664 18.9277C10.8069 18.945 10.8475 18.9623 10.8881 18.9796C11.0213 19.0314 11.1488 19.0775 11.2763 19.1063C12.3947 19.3887 13.4493 19.5327 14.4286 19.5327C15.431 19.5327 16.3582 19.3887 17.2042 19.0948C17.2216 19.089 17.2389 19.0833 17.2563 19.0775L17.2795 19.066H17.2853C17.604 18.945 17.9111 18.7836 18.2124 18.5762C18.2182 18.5762 18.2182 18.5704 18.224 18.5704L18.2356 18.5589C18.282 18.5244 18.3283 18.4955 18.3689 18.461C18.3747 18.4552 18.3805 18.4494 18.3863 18.4494C18.3921 18.4437 18.4037 18.4379 18.4095 18.4322L18.4153 18.4264L18.4326 18.4149L18.4384 18.4091L18.4442 18.4033C18.4674 18.3803 18.4964 18.363 18.5196 18.34C18.5254 18.3342 18.5369 18.3284 18.5427 18.3227C18.5949 18.2766 18.6528 18.2305 18.705 18.1844C19.0758 17.856 19.4177 17.4814 19.7306 17.1184C19.806 17.032 19.8813 16.9455 19.9566 16.8591C20.0435 16.7612 20.1305 16.6632 20.2116 16.5653C20.5651 16.1619 20.9591 15.7355 21.3879 15.3898C21.6602 15.1708 21.9442 14.9576 22.2339 14.756C22.3266 14.6926 22.4251 14.6234 22.5236 14.5601C22.7206 14.4333 22.9177 14.3065 23.1205 14.1855C23.3233 14.0645 23.5261 13.9493 23.7347 13.8456C24.0476 13.6842 24.3663 13.5287 24.685 13.3904C25.2239 13.1541 25.7802 12.9524 26.3365 12.7911C26.3944 12.7738 26.4524 12.7565 26.5103 12.7393C26.7421 12.6759 26.9797 12.6067 27.2057 12.5145C27.4027 12.4396 27.5707 12.3532 27.7214 12.261C27.7562 12.238 27.7909 12.2149 27.8199 12.1976C27.8257 12.1919 27.8315 12.1861 27.8431 12.1803L27.8489 12.1746C27.872 12.1573 27.8894 12.1458 27.9126 12.1285C27.9242 12.1227 27.9358 12.1112 27.9416 12.1054C27.959 12.0881 27.9764 12.0766 27.9937 12.0593C27.9995 12.0536 28.0111 12.042 28.0169 12.0363C28.0343 12.019 28.0517 12.0017 28.0691 11.9844L28.0749 11.9787C28.0807 11.9729 28.0864 11.9671 28.0922 11.9614C28.1154 11.9383 28.1386 11.9095 28.1618 11.8865L28.1676 11.8807C28.185 11.8577 28.2023 11.8346 28.2197 11.8058L28.2313 11.7828C28.2429 11.7655 28.2603 11.7424 28.2719 11.7194C28.2777 11.7136 28.2835 11.7021 28.2893 11.6963C28.3008 11.6733 28.3124 11.656 28.324 11.6329L28.3356 11.6157C28.3472 11.5926 28.3588 11.5696 28.3704 11.5407C28.3704 11.5407 28.3762 11.535 28.3762 11.5292C28.3878 11.5004 28.3994 11.4716 28.4052 11.4428C28.4167 11.414 28.4225 11.3794 28.4341 11.3506L28.4399 11.3391C28.4457 11.316 28.4515 11.2872 28.4573 11.2642V11.2469C28.4631 11.2181 28.4689 11.195 28.4689 11.1662C28.4689 11.1662 28.4689 11.1604 28.4689 11.1547C28.4747 11.1144 28.4805 11.0683 28.4805 11.0222C28.4805 11.0106 28.4805 10.9991 28.4805 10.9818C28.4805 10.9473 28.4805 10.9127 28.4805 10.8839C28.4805 10.8781 28.4805 10.8723 28.4805 10.8666V10.8608C28.4805 10.6361 28.4515 10.3999 28.4225 10.1579C28.4109 10.0599 28.3994 9.95618 28.3878 9.85246L28.2487 8.52719C28.3588 8.47533 28.4573 8.41195 28.5442 8.33128C28.7181 8.16995 28.8455 7.95099 28.9325 7.68017C29.0368 7.32869 29.002 6.98296 28.9498 6.59691C28.9788 6.48167 28.9614 6.33185 28.9498 6.15899ZM10.4882 18.2478C10.4708 18.2362 10.4593 18.2247 10.4419 18.2132C10.4187 18.1959 10.3897 18.1786 10.3665 18.1613C9.89719 17.8041 9.48577 17.3201 9.09173 16.8534C9.01061 16.7554 8.92369 16.6574 8.83677 16.5537C8.8078 16.5192 8.77883 16.4846 8.74985 16.45L8.73247 16.4327C8.70929 16.4039 8.68611 16.3809 8.65714 16.3521L8.62817 16.3232C8.60499 16.3002 8.5876 16.2772 8.56443 16.2541L8.52966 16.2195C8.50648 16.1965 8.4891 16.1734 8.46592 16.1561L8.43694 16.1158C8.41956 16.0928 8.39638 16.0755 8.3732 16.0524L8.33844 16.0179C8.31526 15.9948 8.29208 15.9718 8.2689 15.9487L8.23993 15.9199C8.20516 15.8853 8.17619 15.8565 8.14142 15.8219C7.48083 15.2054 6.68697 14.5024 5.82937 13.9147C5.17458 13.4653 4.45026 13.1195 3.7549 12.7911C3.56368 12.6989 3.37246 12.6067 3.18124 12.5145L3.14647 12.4972C3.04217 12.4454 2.93207 12.3935 2.82197 12.3417C2.62496 12.2437 2.3584 12.117 2.09185 11.9959C1.96437 11.9383 1.84268 11.8865 1.721 11.8346C1.68623 11.8231 1.65726 11.8058 1.61669 11.7885C1.6109 11.7885 1.60511 11.7828 1.59931 11.777L1.58193 11.7655C1.55875 11.7539 1.53557 11.7424 1.51819 11.7309C1.5066 11.7251 1.49501 11.7194 1.48342 11.7078L1.47762 11.7021C1.46024 11.6906 1.44286 11.679 1.42547 11.6675C1.41388 11.656 1.40229 11.6502 1.38491 11.6387C1.36753 11.6272 1.35014 11.6157 1.33855 11.5984C1.32696 11.5868 1.31538 11.5753 1.30379 11.5696C1.2922 11.558 1.27481 11.5407 1.26322 11.5292L1.25163 11.5177C1.24584 11.5119 1.24584 11.5119 1.24005 11.5062C1.23425 11.5004 1.22846 11.4946 1.22846 11.4946C1.22266 11.4889 1.21687 11.4831 1.21107 11.4716L1.19948 11.4543C1.19369 11.4486 1.19369 11.4486 1.18789 11.4428C1.15892 11.414 1.13574 11.3852 1.11256 11.3506L1.09518 11.3333C1.08359 11.316 1.06621 11.293 1.05462 11.2699L1.03723 11.2469C1.03144 11.2354 1.02565 11.2296 1.01985 11.2181C1.01406 11.2065 1.00826 11.195 1.00247 11.1835L0.990877 11.1605C0.979288 11.1374 0.967699 11.1144 0.95611 11.0913L0.950315 11.074C0.938726 11.051 0.927137 11.0222 0.921342 10.9934V10.9876C0.898164 10.93 0.88078 10.8723 0.869191 10.809C1.30958 10.7398 1.76156 10.7052 2.20774 10.7052C6.65221 10.7052 10.326 14.0588 10.7432 18.4091C10.6505 18.3573 10.5694 18.3054 10.4882 18.2478ZM17.0014 18.703C15.4194 19.2273 13.542 19.2216 11.4096 18.6799C11.3458 18.6626 11.2821 18.6454 11.2126 18.6223C10.8997 13.9089 6.96511 10.2385 2.19616 10.2385C1.73838 10.2385 1.2864 10.2731 0.834423 10.3422C0.834423 10.3365 0.834423 10.3307 0.834423 10.325C0.898164 9.82365 0.973494 9.25897 1.072 8.56177C1.64567 8.6482 2.33523 8.39467 2.87412 7.86456C3.05376 7.68593 3.16385 7.49002 3.24498 7.33445C3.38984 7.06363 3.38984 7.06363 3.55789 7.1443C3.68537 7.20768 3.85921 7.53612 3.99828 7.79541C4.16053 8.09504 4.32277 8.40619 4.52559 8.57905C5.05869 9.03425 5.74245 9.28778 6.44939 9.28778C7.12736 9.28778 7.79374 9.05154 8.32105 8.62515C8.47751 8.49838 8.5876 8.36009 8.68611 8.23333C8.90051 7.96251 8.95266 7.91642 9.15547 7.99132C9.26557 8.03166 9.45679 8.34857 9.58428 8.56177C9.73494 8.80953 9.8798 9.04578 10.042 9.18407C10.5462 9.59893 11.2184 9.83518 11.8963 9.83518C12.5627 9.83518 13.2349 9.61622 13.6927 9.24745C13.8549 9.12068 13.9824 8.91325 14.1099 8.71158C14.2547 8.4811 14.4402 8.18723 14.5908 8.19876C14.7009 8.21028 14.9617 8.56753 15.0776 8.71734C15.1992 8.88444 15.3035 9.02273 15.4079 9.10916C15.9699 9.58165 16.6421 9.82942 17.3433 9.82942C18.253 9.82942 19.0874 9.41455 19.6379 8.70005L19.7248 8.58481C19.9103 8.33705 20.0725 8.12385 20.1768 8.11233C20.229 8.10656 20.3333 8.13537 20.5535 8.31976C20.7099 8.45229 20.849 8.57905 20.9765 8.70582C21.44 9.14373 21.8399 9.52403 22.7902 9.52403C23.3812 9.52403 23.9781 9.33964 24.459 9.01121C24.7314 8.82682 24.9226 8.45229 25.1138 8.08928C25.2181 7.88761 25.392 7.55917 25.4789 7.51883C25.6179 7.45545 25.7165 7.5246 25.9598 7.78389C26.041 7.87032 26.1279 7.95675 26.2264 8.03166C26.6262 8.34281 27.2578 8.65396 27.8373 8.62515L27.9706 9.8928C27.9821 9.99652 27.9937 10.1002 28.0053 10.2039C28.0227 10.325 28.0343 10.446 28.0459 10.5612C27.3795 10.4114 26.7015 10.3307 26.012 10.3307C21.2546 10.3365 17.3201 14.0011 17.0014 18.703ZM28.0517 11.0855V11.0913C28.0517 11.1086 28.0459 11.1316 28.0401 11.1489V11.1605C28.0343 11.1777 28.0343 11.195 28.0285 11.2181C28.0285 11.2181 28.0285 11.2238 28.0285 11.2296C28.0227 11.2642 28.0111 11.2987 27.9995 11.3275C27.9937 11.3391 27.9937 11.3448 27.9879 11.3564V11.3621C27.9821 11.3794 27.9764 11.3967 27.9648 11.414L27.959 11.4255C27.9532 11.437 27.9416 11.4543 27.9358 11.4658L27.9242 11.4831C27.9184 11.4946 27.9068 11.5119 27.8952 11.5235L27.8836 11.535C27.872 11.5523 27.8605 11.5696 27.8431 11.5868C27.8257 11.6041 27.8141 11.6214 27.7967 11.6387L27.7851 11.6502C27.7735 11.6617 27.762 11.679 27.7446 11.6906L27.7272 11.7078C27.7156 11.7194 27.6982 11.7309 27.6866 11.7424C27.6808 11.7482 27.6692 11.7539 27.6634 11.7597C27.6461 11.7712 27.6345 11.7828 27.6171 11.7943L27.5939 11.8116C27.5707 11.8288 27.5418 11.8461 27.5128 11.8634C27.3853 11.9441 27.2462 12.0132 27.0782 12.0766C26.8696 12.1573 26.6436 12.2207 26.4234 12.2841C26.3654 12.3013 26.3075 12.3186 26.2496 12.3359C25.6759 12.503 25.0964 12.7104 24.5459 12.9524C24.2157 13.0965 23.8854 13.2521 23.5667 13.4249C23.3523 13.5344 23.1437 13.6554 22.935 13.7764C22.7264 13.8974 22.5236 14.03 22.3208 14.1625C22.2165 14.2316 22.118 14.295 22.0195 14.3642C21.724 14.5716 21.4284 14.7905 21.1503 15.0153C20.6925 15.384 20.2869 15.8277 19.9161 16.2483C19.8291 16.3463 19.7422 16.4443 19.6553 16.548C19.58 16.6344 19.5046 16.7208 19.4293 16.8073C19.3887 16.8534 19.354 16.8937 19.3134 16.9398C19.2323 17.032 19.1512 17.1242 19.0642 17.2106C18.8672 17.4238 18.6586 17.637 18.4384 17.8271C18.3921 17.8732 18.3399 17.9136 18.2878 17.9539C18.253 17.9827 18.224 18.0058 18.1893 18.0346L18.1835 18.0403L18.1661 18.0576C18.1603 18.0576 18.1603 18.0634 18.1545 18.0634C18.1487 18.0691 18.1429 18.0691 18.1371 18.0749C18.1313 18.0807 18.1255 18.0864 18.1197 18.0864C18.0792 18.1152 18.0386 18.1498 17.998 18.1786L17.9865 18.1844C17.8242 18.2996 17.6562 18.3976 17.4939 18.4783C17.9053 14.1221 21.5849 10.7686 26.0294 10.7686C26.7189 10.7686 27.4027 10.8493 28.0691 11.0106C28.0575 11.0567 28.0575 11.074 28.0517 11.0855ZM28.5326 7.54188C28.4747 7.73203 28.3878 7.88184 28.2777 7.98556C28.1965 8.06047 28.1038 8.11233 27.9879 8.14114C27.536 8.25638 26.9217 7.99132 26.5161 7.67441C26.4466 7.62255 26.377 7.54764 26.3017 7.46698C26.0699 7.22497 25.757 6.89653 25.2992 7.10397C25.0617 7.20768 24.8994 7.5246 24.7082 7.88761C24.5575 8.18147 24.3837 8.51567 24.2041 8.63667C23.7984 8.91325 23.3001 9.06883 22.796 9.06883C22.0311 9.06883 21.7414 8.79225 21.301 8.37738C21.1735 8.25638 21.0228 8.11233 20.8548 7.97404C20.5593 7.73203 20.3449 7.63984 20.1305 7.66289C19.8291 7.69746 19.6321 7.95675 19.3656 8.314L19.2787 8.42348C18.8093 9.02849 18.1081 9.37421 17.3433 9.37421C16.7522 9.37421 16.1843 9.16102 15.7034 8.76344C15.6454 8.71158 15.5469 8.57905 15.4484 8.45229C15.1992 8.11233 14.9385 7.7666 14.6198 7.74355C14.191 7.71474 13.936 8.11809 13.7158 8.46957C13.6115 8.63667 13.5014 8.80953 13.4029 8.8902C13.0263 9.19559 12.4584 9.37421 11.8963 9.37421C11.3285 9.37421 10.7606 9.17831 10.3376 8.83258C10.2333 8.74615 10.1 8.52719 9.9841 8.33128C9.7755 7.99132 9.58428 7.66865 9.31772 7.57069C8.78462 7.37478 8.52966 7.69746 8.32105 7.96251C8.23413 8.07199 8.14721 8.18723 8.03132 8.27942C7.58514 8.64243 7.02306 8.83834 6.44939 8.83834C5.85255 8.83834 5.27888 8.62515 4.82691 8.24485C4.68783 8.12961 4.54876 7.8588 4.40969 7.59374C4.21268 7.22497 4.02725 6.87348 3.76649 6.74096C3.19862 6.45862 2.97843 6.8562 2.83936 7.12125C2.76403 7.2653 2.6829 7.41512 2.54963 7.54188C2.05708 8.02013 1.40809 8.23909 0.961904 8.06623C0.550487 7.90489 0.463568 7.44393 0.463568 7.09244C0.469363 4.73576 0.88078 3.90027 1.22266 3.61216C1.37332 3.4854 1.54716 3.44506 1.74997 3.47964C5.0529 4.05584 16.6595 5.76717 27.2752 3.51421C27.4606 3.47387 27.6113 3.50269 27.7446 3.60064C28.2951 4.00398 28.4225 5.43873 28.4921 6.20509C28.5095 6.38371 28.521 6.53929 28.5384 6.66029C28.579 6.98296 28.608 7.28259 28.5326 7.54188Z" fill="#624C49"/>
</svg>
