<svg width="24" height="24" viewBox="0 0 24 24" fill="none" xmlns="http://www.w3.org/2000/svg">
<path d="M7.24019 20.9068C7.30025 20.9665 7.38151 21 7.46621 21C7.55091 21 7.63217 20.9665 7.69223 20.9068L20.8369 7.7621C20.8966 7.70203 20.9301 7.62077 20.9301 7.53608C20.9301 7.45138 20.8966 7.37012 20.8369 7.31005L16.7621 3.22238C16.702 3.16267 16.6207 3.12915 16.536 3.12915C16.4513 3.12915 16.3701 3.16267 16.31 3.22238L3.16534 16.3671C3.10563 16.4271 3.07211 16.5084 3.07211 16.5931C3.07211 16.6778 3.10563 16.759 3.16534 16.8191L7.24019 20.9068ZM16.5376 3.91488L20.1636 7.53127L19.4808 8.21735L17.6662 6.40275L17.2141 6.8548L19.0287 8.6694L18.1214 9.57671L17.2141 8.6694L16.7621 9.12145L17.6694 10.0288L16.7621 10.9361L14.9475 9.12145L14.4954 9.5735L16.31 11.3881L15.4027 12.2954L14.4954 11.3881L14.0434 11.8402L14.9507 12.7475L14.0434 13.6548L12.2287 11.8402L11.7767 12.2922L13.6041 14.1036L12.6968 15.0109L11.7895 14.1036L11.3375 14.5557L12.2448 15.463L11.3375 16.3703L9.52287 14.5557L9.07082 15.0077L10.8854 16.8223L9.97813 17.7296L9.07082 16.8223L8.61877 17.2744L9.52608 18.1817L8.61877 19.089L6.80417 17.2744L6.35212 17.7264L8.1539 19.5442L7.47422 20.2239L3.8386 16.5979L16.5376 3.91488Z" fill="#624C49"/>
</svg>
