<svg width="18" height="18" viewBox="0 0 18 18" fill="none" xmlns="http://www.w3.org/2000/svg">
<path fill-rule="evenodd" clip-rule="evenodd" d="M1.96843 8.18894C5.74998 6.54138 8.2716 5.4552 9.5333 4.93042C13.1357 3.43205 13.8843 3.17177 14.3721 3.16318C14.4795 3.16129 14.7194 3.18788 14.8748 3.31399C15.006 3.42048 15.0421 3.56432 15.0594 3.66528C15.0767 3.76624 15.0982 3.99623 15.0811 4.17594C14.8859 6.22709 14.0412 11.2047 13.6115 13.502C13.4296 14.4741 13.0716 14.8 12.725 14.8319C11.9717 14.9012 11.3997 14.3341 10.67 13.8558C9.52836 13.1074 8.88338 12.6416 7.77518 11.9113C6.49445 11.0673 7.32469 10.6034 8.05457 9.84534C8.24558 9.64695 11.5646 6.62802 11.6289 6.35416C11.6369 6.31991 11.6444 6.19223 11.5685 6.12482C11.4927 6.0574 11.3807 6.08046 11.2999 6.09879C11.1854 6.12478 9.36157 7.33029 5.82835 9.71531C5.31066 10.0708 4.84174 10.244 4.42161 10.2349C3.95845 10.2249 3.06752 9.97305 2.4052 9.75775C1.59284 9.49369 0.947191 9.35407 1.00341 8.90561C1.0327 8.67202 1.35437 8.43313 1.96843 8.18894Z" fill="#624C49"/>
</svg>
