<svg width="24" height="24" viewBox="0 0 24 24" fill="none" xmlns="http://www.w3.org/2000/svg">
<path fill-rule="evenodd" clip-rule="evenodd" d="M14.2693 11.0126C16.1154 10.1876 17.3846 8.35 17.3846 6.25C17.3846 3.36256 14.9615 1 12 1C9.03847 1 6.61538 3.36251 6.61538 6.25C6.61538 8.35 7.8846 10.1874 9.73071 11.0126C5.30757 12.0251 2 15.8874 2 20.5C2 20.9125 2.03846 21.2875 2.07692 21.6625C2.11538 21.85 2.26923 22 2.46154 22H2.80763V21.25C2.76917 20.9875 2.76917 20.7625 2.76917 20.5C2.76917 15.55 6.92302 11.5 11.9999 11.5C17.0769 11.5 21.2307 15.55 21.2307 20.5V20.5025C21.2307 20.764 21.2307 20.9883 21.1924 21.25V22H21.5385C21.7308 22 21.8846 21.85 21.9231 21.6625C21.9615 21.2875 22 20.875 22 20.5C22 15.8874 18.6922 12.0251 14.2693 11.0126ZM12 1.75C9.46154 1.75 7.38462 3.77512 7.38462 6.25C7.38462 8.725 9.46154 10.75 12 10.75C14.5385 10.75 16.6154 8.725 16.6154 6.25C16.6154 3.775 14.5385 1.75 12 1.75Z" fill="#624C49"/>
</svg>
