<svg width="29" height="25" viewBox="0 0 29 25" fill="none" xmlns="http://www.w3.org/2000/svg">
<path d="M22.7632 14.2831L22.7631 14.2832C22.4906 13.3749 22.0411 12.82 21.535 12.198C21.0124 11.5562 20.4553 10.8711 19.98 9.6375L19.9799 9.63735C19.5287 8.464 19.2204 7.23407 19.0651 5.98014C19.0547 5.89716 18.9928 5.8282 18.9093 5.80909C18.8224 5.79104 18.7408 5.82748 18.6968 5.89901L18.6967 5.89932C17.834 7.30005 17.5288 8.58996 17.744 9.74555L17.744 9.7456C17.8529 10.3307 18.0662 10.749 18.2666 11.1419L18.2667 11.1421L18.2668 11.1424L18.2738 11.1561C18.485 11.5686 18.6816 11.9525 18.6663 12.481M22.7632 14.2831L18.4196 12.4739M22.7632 14.2831C23.1573 15.6008 23.0004 16.9012 22.7005 17.9437C22.4004 18.9868 21.9618 19.7556 21.8147 19.9966L21.8145 19.9969C20.1684 22.7022 17.0213 23.8489 14.2838 23.8489C13.9441 23.8489 13.6105 23.8315 13.2883 23.7968L13.2883 23.7968C10.1244 23.4567 6.58932 21.5393 5.70696 18.0914L5.70694 18.0913C5.07794 15.6367 6.02331 13.4692 6.65405 12.3848L6.66145 12.3721L6.66728 12.3586C6.90821 11.8007 7.1999 10.8385 7.09711 9.67742L7.09708 9.6771C7.04329 9.07845 6.89018 8.49225 6.64418 7.93497L6.41844 8.03462M22.7632 14.2831L6.44075 12.2608C6.67057 11.7286 6.94949 10.8081 6.85131 9.69918C6.79999 9.12796 6.65385 8.56791 6.41844 8.03462M18.6663 12.481L18.4196 12.4739M18.6663 12.481C18.6663 12.481 18.6663 12.481 18.6663 12.481L18.4196 12.4739M18.6663 12.481C18.648 13.1144 18.4296 13.7476 18.0432 14.3123L17.8395 14.173C18.2021 13.6431 18.4029 13.0552 18.4196 12.4739M6.41844 8.03462C6.34927 7.87733 6.37605 7.69435 6.48761 7.56382C6.59917 7.43328 6.77656 7.37862 6.94167 7.42324C8.77472 7.91526 9.78663 8.62595 10.0365 9.59545M6.41844 8.03462L6.64432 7.93528C6.61318 7.86447 6.62537 7.78244 6.67519 7.72414L6.6752 7.72413C6.72486 7.66602 6.80418 7.64169 6.87729 7.66145L6.87771 7.66156C8.69984 8.15066 9.58393 8.8289 9.79751 9.65671M10.0365 9.59545L9.79742 9.65634C9.79745 9.65646 9.79748 9.65658 9.79751 9.65671M10.0365 9.59545L9.7976 9.65704C9.79757 9.65693 9.79754 9.65682 9.79751 9.65671M10.0365 9.59545C10.128 9.95469 10.089 10.257 10.051 10.5482L9.79751 9.65671M9.79751 9.65671C9.87596 9.96507 9.84438 10.2244 9.80635 10.5163L9.80627 10.517L9.80474 10.529C9.77022 10.7994 9.73084 11.1078 9.80101 11.5252L9.80106 11.5254C9.85326 11.8338 9.95376 12.1383 10.1005 12.4295C10.2255 12.6789 10.455 12.7266 10.5458 12.7351C10.6407 12.7448 10.8678 12.7371 11.0301 12.5221M11.0301 12.5221C11.0301 12.5221 11.0301 12.5221 11.0301 12.5221L10.8331 12.3734L11.0301 12.5221Z" stroke="#624C49" stroke-width="0.493513"/>
</svg>
