<svg width="18" height="18" viewBox="0 0 18 18" fill="none" xmlns="http://www.w3.org/2000/svg">
<path fill-rule="evenodd" clip-rule="evenodd" d="M15.1056 3.92499C15.7716 4.10326 16.295 4.6266 16.4732 5.29256C16.7954 6.49841 16.7967 9.01581 16.7967 9.01581C16.7967 9.01581 16.7967 11.5332 16.4732 12.7391C16.295 13.405 15.7716 13.9284 15.1056 14.1066C13.8998 14.4301 9.06238 14.4301 9.06238 14.4301C9.06238 14.4301 4.22497 14.4301 3.01912 14.1066C2.35317 13.9284 1.82982 13.405 1.65155 12.7391C1.32812 11.5332 1.32812 9.01581 1.32812 9.01581C1.32812 9.01581 1.32812 6.49841 1.65155 5.29256C1.82982 4.6266 2.35317 4.10326 3.01912 3.92499C4.22497 3.60156 9.06238 3.60156 9.06238 3.60156C9.06238 3.60156 13.8998 3.60156 15.1056 3.92499ZM11.5343 9.01536L7.51562 11.3354V6.69531L11.5343 9.01536Z" fill="#624C49"/>
</svg>
